<?xml version="1.0" standalone="no"?>
<!DOCTYPE svg PUBLIC "-//W3C//DTD SVG 1.1//EN" "http://www.w3.org/Graphics/SVG/1.1/DTD/svg11.dtd" >
<!--
2013-9-30: Created.
-->
<svg>
<metadata>
Created by iconfont
</metadata>
<defs>

<font id="iconfont" horiz-adv-x="1024" >
  <font-face
    font-family="iconfont"
    font-weight="500"
    font-stretch="normal"
    units-per-em="1024"
    ascent="896"
    descent="-128"
  />
    <missing-glyph />
    
    <glyph glyph-name="message" unicode="&#59069;" d="M640 480l-256 0c-17.664 0-32 14.336-32 32s14.336 32 32 32l256 0c17.696 0 32-14.336 32-32S657.696 480 640 480zM579.264 352 384 352c-17.664 0-32 14.336-32 32s14.336 32 32 32l195.264 0c17.696 0 32-14.336 32-32S596.928 352 579.264 352zM962.24 448c0 211.744-200.96 384-448 384s-448-172.256-448-384c0-116.512 63.04-226.048 172.928-300.672 14.624-9.984 34.528-6.144 44.448 8.512 9.92 14.624 6.112 34.528-8.512 44.448C183.04 262.784 130.24 353.056 130.24 448c0 176.448 172.256 320 384 320 211.744 0 384-143.552 384-320 0-176.448-172.256-320-384-320-1.984 0-3.68-0.768-5.568-1.12-15.136 2.72-30.464-5.216-35.776-20.192-6.144-17.376-46.368-46.656-94.144-73.792 17.44 58.208 9.088 70.688 3.488 78.976-6.72 9.984-17.92 15.936-29.92 15.936-17.664 0-32-14.304-32-32 0-5.824 1.536-11.264 4.256-15.968-3.232-18.208-17.216-60.832-33.056-99.84-4.928-12.096-1.984-25.984 7.392-35.072 6.08-5.888 14.112-8.992 22.272-8.992 4.384 0 8.8 0.896 12.992 2.752 36.48 16.256 147.648 69.12 187.616 125.632C765.344 67.84 962.24 238.432 962.24 448z"  horiz-adv-x="1024" />

    
    <glyph glyph-name="error" unicode="&#58923;" d="M512 831.696462c-247.25636 0-447.696462-200.440102-447.696462-447.696462 0-247.254314 200.440102-447.696462 447.696462-447.696462s447.696462 200.440102 447.696462 447.696462S759.25636 831.696462 512 831.696462zM710.491727 230.733291c12.491499-12.491499 12.489452-32.729425-0.002047-45.220924-6.246261-6.246261-14.429641-9.370415-22.611997-9.370415s-16.363689 3.121084-22.60995 9.366322L512 338.777029 358.730221 185.508273c-6.246261-6.246261-14.429641-9.366322-22.611997-9.366322s-16.365736 3.125177-22.611997 9.370415c-12.491499 12.491499-12.491499 32.729425 0 45.220924l153.268756 153.266709L313.50725 537.269779c-12.491499 12.491499-12.489452 32.729425 0.002047 45.220924s32.729425 12.495592 45.220924 0.004093l153.268756-153.268756 153.268756 153.268756c12.491499 12.491499 32.729425 12.487406 45.220924-0.004093s12.493545-32.729425 0.002047-45.220924L557.225017 384 710.491727 230.733291z"  horiz-adv-x="1024" />

    
    <glyph glyph-name="add3" unicode="&#58932;" d="M512 788c-229.744 0-416-186.256-416-416s186.256-416 416-416 416 186.256 416 416-186.256 416-416 416zM512-12c-212.08 0-384 171.92-384 384s171.92 384 384 384 384-171.92 384-384-171.92-384-384-384zM776 388l-248 0 0 248c0 4.416-3.584 8-8 8l-16 0c-4.416 0-8-3.584-8-8l0-248-248 0c-4.416 0-8-3.584-8-8l0-16c0-4.416 3.584-8 8-8l248 0 0-248c0-4.4 3.584-8 8-8l16 0c4.416 0 8 3.6 8 8l0 248 248 0c4.4 0 8 3.584 8 8l0 16c0 4.416-3.6 8-8 8z"  horiz-adv-x="1024" />

    
    <glyph glyph-name="successful" unicode="&#59000;" d="M909.200906 827.821201c0 0-24.76094-203.794499 51.423183-350.448604 0 0-379.01522-215.231993-512.322341-537.108864 0 0-201.889103 289.49844-386.635781 306.640865l199.983707 163.807786c0 0 151.013389-201.429639 168.701237-228.614791C451.469903 149.642414 874.918102 812.585195 909.200906 827.821201z"  horiz-adv-x="1024" />

    
    <glyph glyph-name="add4" unicode="&#58995;" d="M148.567863 747.432137c-198.090484-198.090484-198.090484-523.981279 0-722.071763 198.090484-198.090484 523.981279-198.090484 722.071763 0 198.090484 198.090484 198.090484 523.981279 0 722.071763C672.549142 945.522621 353.048362 945.522621 148.567863 747.432137L148.567863 747.432137zM825.909516 70.090484c-178.920437-178.920437-453.691108-178.920437-632.611544 0-178.920437 178.920437-178.920437 453.691108 0 632.611544 178.920437 178.920437 453.691108 178.920437 632.611544 0C1004.829953 523.781591 1004.829953 242.620905 825.909516 70.090484L825.909516 70.090484zM544.74883 415.151326l0 255.600624c0 19.170047-12.780031 31.950078-31.950078 31.950078-19.170047 0-31.950078-12.780031-31.950078-31.950078l0-255.600624-255.600624 0C212.468019 415.151326 199.687988 402.371295 199.687988 383.201248c0-19.170047 12.780031-31.950078 31.950078-31.950078l255.600624 0 0-255.600624c0-19.170047 12.780031-31.950078 31.950078-31.950078 19.170047 0 31.950078 12.780031 31.950078 31.950078l0 255.600624 255.600624 0c19.170047 0 31.950078 12.780031 31.950078 31.950078 0 19.170047-12.780031 31.950078-31.950078 31.950078L544.74883 415.151326 544.74883 415.151326zM544.74883 415.151326"  horiz-adv-x="1024" />

    
    <glyph glyph-name="kuaitui" unicode="&#58931;" d="M526.651 754.192c-247.871 0-448.841-200.957-448.841-448.841s200.97-448.841 448.841-448.841c247.898 0 448.84 200.957 448.84 448.841 0 247.884-200.942 448.841-448.84 448.841zM526.651-59.332c-201.409 0-364.683 163.274-364.683 364.684 0 201.409 163.275 364.683 364.683 364.683 201.409 0 364.683-163.275 364.683-364.683-0.001-201.409-163.275-364.684-364.683-364.684zM387.766 448.477c0 2.621-0.999 5.242-2.999 7.241s-4.62 2.999-7.241 2.999h-35.84c-2.62 0-5.242-1-7.241-2.999-2-2-2.999-4.62-2.999-7.241v-287.744c0-2.621 0.999-5.241 2.999-7.241 2-1.998 4.62-2.999 7.241-2.999h35.84c2.62 0 5.242 1.001 7.241 2.999 2 2 2.999 4.621 2.999 7.241v287.744zM734.432 159.482c2.948-2.495 7.189-3.204 10.922-1.472 3.734 1.732 5.932 5.429 5.932 9.289l-0 263.953c0 3.861-2.197 7.558-5.932 9.29-3.734 1.732-7.974 1.022-10.922-1.473l-155.974-131.976c-2.218-1.877-3.625-4.682-3.625-7.817 0-3.135 1.407-5.94 3.625-7.817l155.974-131.976zM397.213 307.092c-2.219-1.877-3.626-4.682-3.626-7.817 0-3.135 1.407-5.94 3.626-7.817l155.972-131.976c2.948-2.495 7.189-3.204 10.922-1.472 3.734 1.732 5.932 5.429 5.932 9.29v263.952c0 3.861-2.197 7.558-5.932 9.29-3.734 1.732-7.974 1.022-10.922-1.473l-155.972-131.976z"  horiz-adv-x="1024" />

    
    <glyph glyph-name="kuaijin" unicode="&#58934;" d="M527.088 752.143c-247.573 0-448.254-200.694-448.254-448.255 0-247.56 200.679-448.253 448.254-448.253 247.573 0 448.253 200.693 448.253 448.253 0 247.561-200.679 448.255-448.253 448.255zM527.088-60.317c-201.144 0-364.205 163.061-364.205 364.206 0 201.146 163.061 364.206 364.205 364.206 201.145 0 364.206-163.061 364.206-364.206 0-201.145-163.061-364.206-364.206-364.206zM694.965 330.089v-169.356c0-2.62 1-5.241 3-7.241 1.999-1.998 4.62-2.999 7.24-2.999h35.84c2.621 0 5.241 1.001 7.241 2.999 2 2 2.999 4.62 2.999 7.241v287.744c0 2.621-0.999 5.241-2.999 7.241-1.999 1.999-4.62 2.999-7.241 2.999h-35.84c-2.62 0-5.24-1-7.24-2.999s-3-4.62-3-7.241v-118.388zM504.273 291.458c2.218 1.877 3.625 4.683 3.625 7.817 0 3.135-1.407 5.94-3.625 7.817l-155.973 131.976c-2.948 2.495-7.19 3.204-10.922 1.473-3.735-1.732-5.932-5.428-5.932-9.29v-263.953c0-3.861 2.197-7.557 5.932-9.289 3.733-1.731 7.974-1.022 10.922 1.472l155.973 131.976zM529.548 439.069c-2.948 2.495-7.189 3.204-10.922 1.473-3.735-1.732-5.932-5.428-5.932-9.29v-263.952c0-3.861 2.197-7.558 5.932-9.29 3.732-1.731 7.974-1.022 10.922 1.472l155.971 131.976c2.219 1.877 3.626 4.683 3.626 7.817 0 3.135-1.407 5.94-3.626 7.817l-155.971 131.976z"  horiz-adv-x="1024" />

    
    <glyph glyph-name="triangle-bottom" unicode="&#58925;" d="M523.955 63.827l323.744 512c6.24 9.856 6.624 22.336 0.992 32.512-5.632 10.24-16.384 16.576-28.033 16.576h-647.328c-11.647 0-22.4-6.336-28.033-16.576-2.656-4.8-3.968-10.112-3.968-15.424 0-5.952 1.664-11.904 4.929-17.088l323.616-512c5.856-9.28 16.064-14.911 27.040-14.912s21.184 5.632 27.040 14.912z"  horiz-adv-x="1024" />

    
    <glyph glyph-name="triangle-right" unicode="&#58927;" d="M817.088 411.040l-512 323.744c-9.856 6.24-22.336 6.624-32.512 0.992-10.24-5.632-16.576-16.384-16.576-28.032v-647.328c0-11.648 6.336-22.4 16.576-28.032 4.8-2.656 10.112-3.968 15.424-3.968 5.952 0 11.904 1.664 17.088 4.928l512 323.616c9.28 5.856 14.912 16.064 14.912 27.040s-5.632 21.184-14.912 27.040z"  horiz-adv-x="1024" />

    
    <glyph glyph-name="triangle-left" unicode="&#58928;" d="M270.912 411.040l512 323.744c9.856 6.24 22.336 6.624 32.512 0.992 10.24-5.632 16.576-16.384 16.576-28.032v-647.328c0-11.648-6.336-22.4-16.576-28.032-4.8-2.656-10.112-3.968-15.424-3.968-5.952 0-11.904 1.664-17.088 4.928l-512 323.616c-9.28 5.856-14.912 16.064-14.912 27.040s5.632 21.184 14.912 27.040z"  horiz-adv-x="1024" />

    
    <glyph glyph-name="triangle-top" unicode="&#58933;" d="M523.955 598.048l323.744-512c6.24-9.856 6.624-22.336 0.992-32.512-5.632-10.24-16.384-16.576-28.033-16.576h-647.328c-11.647 0-22.4 6.336-28.033 16.576-2.656 4.8-3.968 10.112-3.968 15.424 0 5.952 1.664 11.904 4.929 17.088l323.616 512c5.856 9.28 16.064 14.911 27.040 14.912s21.184-5.632 27.040-14.912z"  horiz-adv-x="1024" />

    
    <glyph glyph-name="add" unicode="&#58915;" d="M780.007475-62.730461 243.903497-62.730461c-98.599645 0-178.61298 79.969333-178.61298 178.61298L65.290517 651.98752c0 98.730629 80.013335 178.744987 178.61298 178.744987l536.105001 0c98.772584 0 178.700985-80.013335 178.700985-178.744987l0-536.105001C958.70846 17.239895 878.781082-62.730461 780.007475-62.730461L780.007475-62.730461zM869.44546 607.312018c0 74.03825-60.119239 134.069485-134.113487 134.069485L288.578999 741.381503c-73.994248 0-134.027529-60.031235-134.027529-134.069485l0-446.665992c0-74.124208 60.033281-134.069485 134.027529-134.069485l446.752973 0c73.994248 0 134.113487 59.945277 134.113487 134.069485L869.44546 607.312018 869.44546 607.312018zM556.630988 160.646026l-89.351004 0L467.279984 339.259006 288.578999 339.259006l0 89.440032 178.700985 0L467.279984 607.312018 556.630988 607.312018l0-178.61298 178.700985 0 0-89.440032L556.630988 339.259006 556.630988 160.646026 556.630988 160.646026z"  horiz-adv-x="1024" />

    
    <glyph glyph-name="ok" unicode="&#58917;" d="M858.215186 530.703223c-19.841907 45.544289-46.667879 85.226057-80.476893 119.03507-33.813107 33.813107-73.629951 60.639079-119.455649 80.476893-45.828768 19.838837-94.727455 29.759791-146.704247 29.759791-51.972699 0-100.732216-9.920954-146.280598-29.759791-45.545312-19.837814-85.226057-46.663786-119.03507-80.476893-33.813107-33.809013-60.639079-73.490781-80.477916-119.03507-19.838837-45.549406-29.759791-94.308923-29.759791-146.281621 0-51.976792 9.920954-100.875478 29.759791-146.704247 19.838837-45.824675 46.664809-85.641519 80.477916-119.454626 33.809013-33.809013 73.489758-60.634985 119.03507-80.477916 45.548382-19.838837 94.307899-29.759791 146.280598-29.759791 51.976792 0 100.875478 9.920954 146.704247 29.759791 45.825698 19.84293 85.642542 46.668902 119.455649 80.477916 33.809013 33.813107 60.634985 73.629951 80.476893 119.454626 19.838837 45.828768 29.759791 94.727455 29.759791 146.704247C887.974977 436.394301 878.054023 485.153818 858.215186 530.703223zM687.075411 471.603197 477.3222 259.56699c-0.052189-0.052189-0.159636-0.079818-0.211824-0.156566-0.075725-0.051165-0.075725-0.159636-0.156566-0.211824-1.678222-1.622964-3.745301-2.617617-5.683443-3.717671-0.971118-0.551562-1.75497-1.390673-2.778276-1.782599-3.14155-1.254573-6.471388-1.910513-9.797134-1.910513-3.354398 0-6.731308 0.655939-9.901511 1.962701-1.047866 0.448208-1.886977 1.335415-2.882654 1.886977-1.938142 1.099031-3.957125 2.070148-5.631254 3.721765-0.052189 0.051165-0.080841 0.155543-0.132006 0.207731-0.052189 0.079818-0.156566 0.079818-0.207731 0.155543L336.777233 365.742171c-10.088776 10.373255-9.853415 26.953885 0.523933 37.043684 10.372232 10.057053 26.929326 9.872858 37.038568-0.523933l84.538395-86.869486 190.974519 193.041598c10.161431 10.296507 26.770713 10.376325 37.039591 0.211824C697.136557 498.452705 697.240935 481.872075 687.075411 471.603197z"  horiz-adv-x="1024" />

    
    <glyph glyph-name="cc-dot" unicode="&#59071;" d="M692.072 554.138c-48.373 48.387-112.706 75.024-181.147 75.024-68.441 0-132.747-26.637-181.149-75.024-48.4-48.375-75.023-112.708-75.023-181.123s26.623-132.746 75.023-181.147c48.375-48.402 112.708-75.024 181.149-75.024 68.442 0 132.745 26.648 181.147 75.024 48.428 48.374 75.025 112.707 75.025 181.147 0 68.441-26.649 132.747-75.025 181.123z"  horiz-adv-x="1024" />

    
    <glyph glyph-name="luxiang" unicode="&#58924;" d="M260.539386 496.01519c-89.952708 0-163.123194 73.170486-163.123194 163.123194s73.170486 163.135474 163.123194 163.135474c89.966011 0 163.148777-73.183789 163.148777-163.135474S350.505397 496.01519 260.539386 496.01519zM260.539386 769.720945c-60.969607 0-110.570281-49.601698-110.570281-110.582561 0-60.969607 49.601698-110.571305 110.570281-110.571305 60.981886 0 110.595864 49.601698 110.595864 110.571305C371.136274 720.119247 321.521273 769.720945 260.539386 769.720945zM188.190615 646.000156c-7.262404 0-13.138228 5.875824-13.138228 13.138228l-0.051165 2.629897c-0.090051 2.758834-0.090051 4.747117 0.730641 9.045003 1.373277 7.120165 8.30106 11.740392 15.383362 10.431583 7.121188-1.373277 11.791557-8.263198 10.43056-15.383362-0.333598-1.719154-0.333598-1.719154-0.281409-3.220345l0.063445-3.501754C201.328843 651.87598 195.451996 646.000156 188.190615 646.000156zM200.404798 686.247812c-2.515287 0-5.054109 0.719384-7.300266 2.219551-6.030343 4.042059-7.633864 12.201903-3.605108 18.231223 15.922644 23.74889 42.48051 37.925774 71.040986 37.925774 7.262404 0 13.138228-5.875824 13.138228-13.138228 0-7.261381-5.875824-13.138228-13.138228-13.138228-19.783579 0-38.182624-9.827833-49.203632-26.276457C208.795908 688.288285 204.639239 686.247812 200.404798 686.247812zM628.407732 496.01519c-89.952708 0-163.123194 73.170486-163.123194 163.123194s73.170486 163.135474 163.123194 163.135474c89.964988 0 163.148777-73.183789 163.148777-163.135474S718.372719 496.01519 628.407732 496.01519zM628.407732 769.720945c-60.969607 0-110.570281-49.601698-110.570281-110.582561 0-60.969607 49.600675-110.571305 110.570281-110.571305 60.981886 0 110.595864 49.601698 110.595864 110.571305C739.003596 720.119247 689.388595 769.720945 628.407732 769.720945zM568.27212 686.247812c-2.514263 0-5.054109 0.719384-7.300266 2.219551-6.031367 4.042059-7.634888 12.201903-3.606131 18.231223 15.923668 23.74889 42.481534 37.925774 71.04201 37.925774 7.262404 0 13.138228-5.875824 13.138228-13.138228 0-7.261381-5.875824-13.138228-13.138228-13.138228-19.783579 0-38.181601-9.827833-49.203632-26.276457C576.66323 688.288285 572.506561 686.247812 568.27212 686.247812zM645.82952-48.594509 157.924287-48.594509c-51.064003 0-92.63377 33.20424-92.63377 82.421174L65.290517 377.219573c0 51.154054 43.263339 99.716073 92.63377 99.716073l487.905232 0c50.218752 0 91.070158-44.264133 91.070158-95.380324 0-0.641613-0.025583-2.592035-0.063445-3.220345l-0.655939-9.853415c38.645159 20.1182 97.741092 51.166333 139.028427 73.260537 13.920034 6.723122 25.37697 9.584286 36.000935 9.584286 13.088086 0 23.801079-4.721535 32.422434-13.522991 16.396435-16.627702 15.049764-41.261753 15.049764-51.744501l0-1.397836 0-353.503173c0-15.807011-2.257413-27.482935-8.800433-36.515658-5.556553-7.698333-17.039072-16.9613-36.015262-16.9613-0.013303 0 0.808412 0 0.808412 0-10.623965 0-21.61939 2.924609-35.474956 7.184633-1.565658 0.488117-2.874467 1.154289-4.312212 1.923816-50.293453 26.482141-104.527658 54.605665-139.438773 72.106248l1.346671-21.861914c0.039909-0.5137 0.077771 1.641383 0.077771 1.128707C736.874095-11.977543 696.894545-48.594509 645.82952-48.594509zM157.924287 424.383756c-20.515243 0-40.08188-24.8909-40.08188-47.163159l0-343.393931c0-20.400632 17.769712-29.868261 40.08188-29.868261l487.905232 0c21.363564 0 38.145785 13.163811 38.518269 33.512255l-3.875261 63.535035c-0.435928 7.236821 2.1295 13.651928 7.095605 18.911722 4.965082 5.285377 11.893888 7.9296 19.129686 7.9296 7.79964 0 13.94664-0.154519 190.681854-93.198635 2.734274-0.821715 6.64535-2.053776 10.31595-2.925632l0.024559 355.185488c0.076748 5.157463-0.127913 8.621355-0.448208 10.969842-1.962701-0.577145-4.682649-1.577938-8.275477-3.310396-181.432189-97.060593-183.729511-97.072873-192.298677-97.072873-7.287987 0-14.255679 3.027963-19.23304 8.365528-4.966105 5.338588-7.492648 12.509918-6.979972 19.783579l3.849678 56.736189c-0.435928 21.401426-17.885346 42.005696-38.503942 42.005696L157.924287 424.385802zM157.257092 261.376195c-7.262404 0-13.138228 5.876847-13.138228 13.137205l0 66.768683c0 24.301476 21.26021 56.825217 47.625694 56.825217l111.597681 0c7.262404 0 13.138228-5.875824 13.138228-13.138228s-5.875824-13.138228-13.138228-13.138228L191.743534 371.830843c-9.609869 0-21.349237-18.308995-21.349237-30.549783l0-66.768683C170.39532 267.253042 164.518472 261.376195 157.257092 261.376195zM369.031333 371.830843l-13.138228 0c-7.261381 0-13.138228 5.875824-13.138228 13.138228s5.876847 13.138228 13.138228 13.138228l13.138228 0c7.262404 0 13.138228-5.875824 13.138228-13.138228S376.293737 371.830843 369.031333 371.830843z"  horiz-adv-x="1024" />

    
    <glyph glyph-name="ok1" unicode="&#59125;" d="M860.048 520.982 522.717 183.65l-63.366-63.365c-8.387-8.387-20.035-13.045-31.684-13.045-11.647 0-23.296 4.658-31.683 13.045l-63.366 63.365L163.953 352.316c-8.387 8.387-13.047 20.035-13.047 31.683s4.66 23.296 13.047 31.683l63.365 63.366c8.387 8.387 20.035 13.046 31.684 13.046s23.296-4.659 31.683-13.046l136.982-137.447 305.648 306.113c8.387 8.387 20.035 13.046 31.683 13.046 11.648 0 23.297-4.659 31.684-13.046l63.366-63.366c8.387-8.387 13.046-20.035 13.046-31.683C873.094 541.017 868.435 529.369 860.048 520.982z"  horiz-adv-x="1024" />

    
    <glyph glyph-name="xiangji" unicode="&#58949;" d="M521.364 508.606c-95.803 0-173.723-77.916-173.723-173.718 0-95.804 77.921-173.723 173.723-173.723 95.804 0 173.724 77.919 173.724 173.723 0 95.803-77.944 173.718-173.724 173.718v0zM890.559 658.293h-162.464l-64.046 82.253c-3.559 4.558-8.965 7.198-14.743 7.198h-265.218c-5.93 0-11.535-2.812-15.047-7.62l-60.255-81.831h-175.343c-37.863 0-68.627-30.764-68.627-68.602v-503.358c0-37.838 30.764-68.602 68.627-68.602h757.116c37.863 0 68.625 30.764 68.625 68.602v503.358c-0 37.815-30.763 68.602-68.625 68.602v0zM521.364 123.824c-116.405 0-211.086 94.683-211.086 211.087s94.681 211.087 211.086 211.087c116.406 0 211.087-94.683 211.087-211.087s-94.681-211.087-211.087-211.087v0zM810.771 499.641c-15.094 0-27.352 12.253-27.352 27.352 0 15.094 12.258 27.349 27.352 27.349 15.094 0 27.352-12.254 27.352-27.349-0-15.099-12.258-27.352-27.352-27.352v0zM810.771 499.641z"  horiz-adv-x="1024" />

    
    <glyph glyph-name="success1f" unicode="&#59089;" d="M60.217477 262.089439c0 0 250.197342-104.557334 374.563838-330.628186 149.378146 279.762705 436.109566 540.713972 521.05012 560.013527 0 115.776863 0 163.394371 0 341.442486-342.237595-226.070852-506.576477-642.342604-506.576477-642.342604l-180.049702 191.614086L60.217477 262.089439z"  horiz-adv-x="1024" />

    
    <glyph glyph-name="iconset0239" unicode="&#59018;" d="M832 426.666667c-12.8 0-21.333333-8.533333-21.333333-21.333333 0-12.8 8.533333-21.333333 21.333333-21.333333s21.333333 8.533333 21.333333 21.333333C853.333333 418.133333 844.8 426.666667 832 426.666667zM405.333333 640l213.333333 0c12.8 0 21.333333 8.533333 21.333333 21.333333 0 12.8-8.533333 21.333333-21.333333 21.333333L405.333333 682.666667c-12.8 0-21.333333-8.533333-21.333333-21.333333C384 648.533333 392.533333 640 405.333333 640zM512 469.333333c-70.4 0-128-57.6-128-128s57.6-128 128-128 128 57.6 128 128S582.4 469.333333 512 469.333333zM512 256c-46.933333 0-85.333333 38.4-85.333333 85.333333s38.4 85.333333 85.333333 85.333333 85.333333-38.4 85.333333-85.333333S558.933333 256 512 256zM896 682.666667l-85.333333 0c-64 0-64 85.333333-149.333333 85.333333s-149.333333 0-149.333333 0-64 0-149.333333 0-85.333333-85.333333-149.333333-85.333333L128 682.666667c-46.933333 0-85.333333-38.4-85.333333-85.333333l0-512c0-46.933333 38.4-85.333333 85.333333-85.333333l768 0c46.933333 0 85.333333 38.4 85.333333 85.333333L981.333333 597.333333C981.333333 644.266667 942.933333 682.666667 896 682.666667zM938.666667 256l-185.6 0c-4.266667-14.933333-12.8-29.866667-19.2-42.666667L938.666667 213.333333l0-128c0-23.466667-19.2-42.666667-42.666667-42.666667L128 42.666667c-23.466667 0-42.666667 19.2-42.666667 42.666667l0 128 204.8 0c-8.533333 12.8-14.933333 27.733333-19.2 42.666667L85.333333 256 85.333333 597.333333c0 23.466667 19.2 42.666667 42.666667 42.666667l85.333333 0c85.333333 0 85.333333 85.333333 149.333333 85.333333 42.666667 0 149.333333 0 149.333333 0s106.666667 0 149.333333 0c64 0 64-85.333333 149.333333-85.333333l85.333333 0c23.466667 0 42.666667-19.2 42.666667-42.666667L938.666667 256zM512 554.666667c-117.333333 0-213.333333-96-213.333333-213.333333 0-117.333333 96-213.333333 213.333333-213.333333s213.333333 96 213.333333 213.333333C725.333333 458.666667 629.333333 554.666667 512 554.666667zM512 170.666667c-93.866667 0-170.666667 76.8-170.666667 170.666667 0 93.866667 76.8 170.666667 170.666667 170.666667s170.666667-76.8 170.666667-170.666667C682.666667 247.466667 605.866667 170.666667 512 170.666667zM832 597.333333c-36.266667 0-64-27.733333-64-64 0-36.266667 27.733333-64 64-64s64 27.733333 64 64C896 569.6 868.266667 597.333333 832 597.333333zM832 512c-12.8 0-21.333333 8.533333-21.333333 21.333333 0 12.8 8.533333 21.333333 21.333333 21.333333s21.333333-8.533333 21.333333-21.333333C853.333333 520.533333 844.8 512 832 512z"  horiz-adv-x="1024" />

    
    <glyph glyph-name="iconfontshanchu4" unicode="&#58907;" d="M296.998642 896 528.538566 896C570.11683 889.199094 587.428226 852.103245 593.456302 814.543698 662.856453 814.543698 732.41117 814.698264 801.811321 814.543698L801.811321 780.693736C781.099472 780.53917 760.387623 780.53917 739.675774 780.53917 723.755472 566.619774 710.617358 352.236679 693.305962 138.317283 694.233358 105.858415 665.793208 87.774189 639.516981 76.8L195.603321 76.8C167.008604 85.610264 136.868226 104.467321 137.795623 138.317283 120.175094 352.236679 107.191547 566.465208 91.116679 780.53917 70.40483 780.53917 49.692981 780.53917 28.981132 780.693736L28.981132 814.543698C98.381283 814.698264 167.936 814.543698 237.336151 814.543698 243.364226 850.557585 259.284528 885.180377 296.998642 896M272.577208 814.85283C367.789887 814.389132 463.002566 814.543698 558.060679 814.85283 554.351094 834.328151 548.168453 862.768302 522.046792 860.758943 450.791849 863.077434 379.073208 863.386566 307.818264 860.604377 282.005736 862.45917 276.750491 833.709887 272.577208 814.85283M125.43034 780.693736C141.196075 566.928906 154.025057 352.854943 171.645585 139.244679 169.790792 116.523472 197.612679 111.268226 214.614943 111.268226 343.832151 109.877132 473.049358 111.422792 602.112 110.649962 622.051019 111.422792 658.219472 109.413434 658.992302 137.699019 677.231094 351.772981 689.750943 566.310642 705.980377 780.53917 512.463698 780.693736 318.947019 780.53917 125.43034 780.693736ZM247.228377 690.581736C255.574943 691.045434 272.422642 691.818264 280.769208 692.281962 293.134491 529.060226 306.272604 365.993057 318.637887 202.925887 310.136755 202.462189 293.289057 201.534792 284.942491 201.071094 272.731774 364.29283 259.284528 527.36 247.228377 690.581736ZM550.177811 692.281962C558.524377 691.818264 575.217509 691.045434 583.564075 690.581736 571.662491 527.36 558.060679 364.29283 546.004528 201.071094 537.503396 201.534792 520.655698 202.307623 512.309132 202.771321 524.519849 365.993057 537.812528 529.060226 550.177811 692.281962ZM398.08483 691.045434C406.740528 691.045434 424.051925 691.045434 432.553057 691.045434 432.707623 527.514566 432.707623 363.983698 432.707623 200.45283 424.051925 200.45283 406.740528 200.45283 398.08483 200.45283 398.08483 363.983698 398.08483 527.514566 398.08483 691.045434Z"  horiz-adv-x="1024" />

    
    <glyph glyph-name="jiantouarrowhead7" unicode="&#59068;" d="M294.13376 384c0 13.70112 5.23264 27.40224 15.6672 37.84704l328.704 328.69376c20.91008 20.91008 54.80448 20.91008 75.70432 0 20.89984-20.89984 20.89984-54.79424 0-75.70432L423.36256 384l290.83648-290.83648c20.89984-20.89984 20.89984-54.80448 0-75.70432-20.89984-20.91008-54.79424-20.91008-75.70432 0l-328.704 328.69376C299.35616 356.59776 294.13376 370.29888 294.13376 384z"  horiz-adv-x="1024" />

    
    <glyph glyph-name="errorsign" unicode="&#59214;" d="M512 810.667c-235.648 0-426.667-191.019-426.667-426.667s191.019-426.667 426.667-426.667c235.648 0 426.667 191.019 426.667 426.667s-191.019 426.667-426.667 426.667zM512 42.667c-188.203 0-341.333 153.131-341.333 341.333s153.131 341.333 341.333 341.333 341.333-153.131 341.333-341.333-153.131-341.333-341.333-341.333zM644.181 562.987l-120.107-124.331-120.064 124.331-61.397-59.264 122.155-126.464-122.155-126.421 61.355-59.264 120.064 124.245 120.107-124.331 61.355 59.349-122.112 126.421 122.155 126.421z"  horiz-adv-x="1024" />

    
    <glyph glyph-name="error1" unicode="&#59013;" d="M512 810.666667C277.333333 810.666667 85.333333 618.666667 85.333333 384s192-426.666667 426.666667-426.666667c234.666667 0 426.666667 192 426.666667 426.666667S746.666667 810.666667 512 810.666667zM554.666667 170.666667l-85.333333 0 0 85.333333 85.333333 0L554.666667 170.666667zM554.666667 341.333333l-85.333333 0L469.333333 597.333333l85.333333 0L554.666667 341.333333z"  horiz-adv-x="1024" />

    
    <glyph glyph-name="0201chazhao" unicode="&#58884;" d="M947.942255 9.991818 720.970894 236.756471c48.977481 62.368466 78.178547 140.907217 78.178547 226.249931 0 202.907293-165.033707 367.395578-368.613312 367.395578-203.580628 0-368.616382-164.489308-368.616382-367.395578 0-202.90627 165.035754-367.395578 368.616382-367.395578 85.758176 0 164.673503 29.192879 227.295749 78.146824l226.938616-226.728838c12.769838-12.727882 33.475416-12.727882 46.246277 0l16.925485 16.870226C960.713117-23.374104 960.713117-2.736065 947.942255 9.991818zM430.536129 184.517713c-154.315598 0-279.414781 124.682697-279.414781 278.487665 0 153.805992 125.099183 278.488689 279.414781 278.488689 154.315598 0 279.410688-124.68372 279.410688-278.488689C709.946816 309.20041 584.851727 184.517713 430.536129 184.517713z"  horiz-adv-x="1024" />

    
    <glyph glyph-name="0801zengjia" unicode="&#58918;" d="M959.676507 387.921309c0 244.530272-200.372563 442.760033-447.545012 442.760033-247.172449 0-447.545012-198.22976-447.545012-442.760033 0-1.440815 0.016373-2.87856 0.030699-4.315282-0.014326-1.437745-0.030699-2.87549-0.030699-4.316306 0-244.530272 200.372563-442.760033 447.545012-442.760033 247.172449 0 447.545012 198.22976 447.545012 442.760033 0 1.440815-0.017396 2.87856-0.030699 4.316306C959.660134 385.043772 959.676507 386.480494 959.676507 387.921309zM867.215676 383.606027c-0.007163-0.584308-0.00614-1.170662-0.016373-1.753947l0.031722 0c0.008186-0.854461 0.023536-1.706875 0.023536-2.563382 0-197.981097-158.994154-358.477464-355.125113-358.477464-196.127889 0-355.123067 160.496367-355.123067 358.477464 0 0.856507 0.016373 1.708921 0.023536 2.563382l0.032746 0c-0.00921 0.583285-0.008186 1.169639-0.016373 1.753947 0.007163 0.584308 0.00614 1.170662 0.016373 1.753947l-0.032746 0c-0.007163 0.854461-0.023536 1.706875-0.023536 2.563382 0 197.981097 158.995177 358.477464 355.123067 358.477464 196.130959 0 355.125113-160.496367 355.125113-358.477464 0-0.856507-0.016373-1.708921-0.023536-2.563382l-0.031722 0C867.209536 384.776689 867.208513 384.190335 867.215676 383.606027zM735.942887 430.840818 555.273061 430.840818 555.273061 611.510644c0 16.019859-12.986779 29.007661-29.006637 29.007661l-33.853016 0c-16.019859 0-29.007661-12.986779-29.007661-29.007661l0-180.669826L282.736944 430.840818c-16.020882 0-29.007661-12.986779-29.007661-29.007661l0-33.851992c0-16.019859 12.986779-29.007661 29.007661-29.007661l180.669826 0 0-180.670849c0-16.019859 12.986779-29.007661 29.007661-29.007661l33.853016 0c16.018835 0 29.006637 12.986779 29.006637 29.007661L555.274084 338.974527l180.669826 0c16.020882 0 29.008684 12.986779 29.008684 29.007661l0 33.851992C764.950548 417.854039 751.963769 430.840818 735.942887 430.840818z"  horiz-adv-x="1024" />

    
    <glyph glyph-name="cheliang" unicode="&#58926;" d="M939.223175 33.227008c-12.304234-49.581232-55.964616-85.733617-107.629299-85.733617-47.960315 0-88.809675 30.727839-104.355743 75.016531L296.751634 22.509922c-15.547091-44.322461-56.428174-75.016531-104.389512-75.016531-51.664683 0-95.258551 36.152385-107.596554 85.733617-53.716412 22.525016-87.949075 78.126358-83.451644 139.847072l10.55131 143.583163c4.134157 57.32152 40.220027 107.993596 91.918479 131.61048l46.439682 223.826741c17.001209 81.829703 97.211019 148.413168 178.843224 148.413168l365.855502 0c81.632205 0 161.842015-66.549695 178.809455-148.413168l46.439682-223.826741c51.698452-23.61586 87.784322-74.28896 91.952248-131.61048l10.518564-143.583163C1027.139503 111.352343 992.939587 55.751001 939.223175 33.227008L939.223175 33.227008zM949.808254 311.861006c-2.744507 37.276998-30.16502 71.113641-66.748217 82.293261-11.973706 3.671623-20.672832 14.289448-22.127973 26.990724-0.231267 1.818415-0.363274 3.605108-0.462534 5.358031-0.066515 0.926092-0.066515 1.88493-0.264013 2.844791l-47.563272 229.384317c-11.014868 52.954049-64.928778 97.706299-117.718075 97.706299L329.066621 756.438431c-52.823066 0-106.704231-44.75225-117.718075-97.706299l-47.597041-229.417063c-0.198521-0.859577-0.198521-1.819438-0.264013-2.778276-0.132006-1.819438-0.264013-3.672646-0.462534-5.491061-1.487887-12.701277-10.155291-23.252587-22.095227-26.924209-36.614919-11.146874-64.068178-44.982494-66.779939-82.293261L63.630203 168.244075c-2.812045-38.20309 20.24202-70.848605 56.063877-79.349209 13.561877-3.27458 23.418362-15.381315 24.113187-29.670763 1.290389-26.758434 22.624277-47.694255 48.555879-47.694255 25.336038 0 46.108131 19.679202 48.357358 45.809325 1.455141 16.504906 14.950504 29.173436 31.124881 29.173436l480.266251 0c16.174378 0 29.735232-12.668531 31.124881-29.173436 2.249227-26.130124 23.02132-45.809325 48.357358-45.809325 25.931602 0 47.26549 20.969591 48.555879 47.694255 0.727571 14.355963 10.584056 26.428929 24.145933 29.670763 35.788088 8.500605 58.843176 41.179888 55.997362 79.382978L949.808254 311.861006 949.808254 311.861006zM840.260256 184.716234c-13.098319-13.396101-31.455409-21.201881-49.945529-21.201881-18.49012 0-36.84721 7.806803-49.912783 21.201881-13.06455 13.396101-20.671809 32.215726-20.671809 51.16838 0 18.952654 7.607258 37.806047 20.671809 51.202149 13.065574 13.396101 31.422663 21.201881 49.912783 21.201881 18.49012 0 36.84721-7.806803 49.945529-21.201881 13.06455-13.396101 20.671809-32.249495 20.671809-51.202149C860.932064 216.93196 853.324806 198.112336 840.260256 184.716234L840.260256 184.716234zM780.326235 429.976124c-6.119371-7.574512-16.07614-11.973706-27.684526-11.973706L271.282566 418.002418c-11.576663 0-21.533432 4.399193-28.081569 12.437264-6.250354 7.375991-8.930393 18.093077-7.17747 29.702486 0.165776 0.794086 0.297782 1.554402 0.463558 2.315742l37.806047 168.456666c4.762467 26.593681 30.430056 48.754401 56.825217 48.754401l361.687576 0c26.39516 0 52.062749-22.226211 56.792471-48.754401l37.806047-168.490435c0.198521-0.760317 0.330528-1.521656 0.462534-2.315742C789.587156 448.49899 786.940886 437.781904 780.326235 429.976124L780.326235 429.976124zM689.002296 615.632521 335.020216 615.632521l-29.999245-133.561925 413.948847 0L689.002296 615.632521 689.002296 615.632521zM283.5868 184.716234c-13.065574-13.396101-31.422663-21.201881-49.912783-21.201881-18.489096 0-36.846186 7.806803-49.91176 21.201881-13.098319 13.396101-20.705578 32.215726-20.705578 51.16838 0 18.952654 7.607258 37.806047 20.705578 51.202149 13.065574 13.396101 31.422663 21.201881 49.91176 21.201881 18.49012 0 36.84721-7.806803 49.912783-21.201881 13.098319-13.396101 20.705578-32.249495 20.705578-51.202149C304.292378 216.93196 296.685119 198.112336 283.5868 184.716234L283.5868 184.716234z"  horiz-adv-x="1039" />

    
    <glyph glyph-name="clouderror" unicode="&#58930;" d="M858.738819 117.827365c-10.430686 0-20.861372 3.965834-28.793039 11.951828L505.779617 453.891029c-15.917661 15.917661-15.917661 41.722744 0 57.640405s41.722744 15.917661 57.640405 0l324.166163-324.166163c15.917661-15.917661 15.917661-41.722744 0-57.640405C879.600191 121.793199 869.169505 117.827365 858.738819 117.827365zM534.572656 117.827365c-10.430686 0-20.861372 3.965834-28.793039 11.951828-15.917661 15.917661-15.917661 41.722744 0 57.640405l324.166163 324.166163c15.917661 15.917661 41.722744 15.917661 57.640405 0s15.917661-41.722744 0-57.640405l-324.166163-324.166163C555.434028 121.793199 545.057669 117.827365 534.572656 117.827365zM725.856226 814.510266c116.041382 0 221.380445-47.318372 296.839938-122.777866 68.125418-68.39705 112.727466-158.633349 121.47403-260.278211 42.591968-14.070561 79.805613-40.962173 108.32702-74.155658 35.90981-42.917927 57.694732-97.896334 57.694732-158.633349 0-67.093214-27.489204-128.808107-71.765293-172.758237-44.276089-44.602048-105.339063-71.765293-172.432278-72.41721l-1.358162 0L399.842962-46.510266c-87.90026 0-167.705873 35.90981-225.400605 93.550215l0.706244 0C117.399544 104.408722 81.489734 183.942703 81.489734 271.788636c0 84.206059 33.193485 160.31747 86.868057 218.012202C216.002122 540.161494 280.379012 574.984774 352.198631 586.393337 385.718075 650.824553 435.046528 705.151042 495.729216 745.406971 562.170513 789.031142 641.324208 814.510266 725.856226 814.510266M725.856226 896c-97.679028 0-192.696058-28.521407-274.83771-82.467611C389.738235 772.896175 338.073744 719.873521 299.610589 658.484588 227.139052 639.307337 160.589103 600.137938 109.196244 545.865775 38.571808 469.917343 0 372.78158 0 271.788636c0-106.479919 41.559764-206.549313 117.019258-281.900154L116.801952-10.600456c75.785453-75.731126 176.289458-117.399544 283.04101-117.399544l664.793252 0c89.204096 0.869224 170.69383 35.149239 231.593825 96.538172 60.465383 60.030771 95.451642 144.07385 95.451642 230.127009 0 76.871983-27.217571 151.788212-76.654677 210.895432-28.032469 32.65022-60.682689 59.052894-96.429519 78.230145-18.525333 98.11364-66.54995 189.545122-138.097936 261.419067C985.754151 843.900897 859.879675 896 725.856226 896L725.856226 896z"  horiz-adv-x="1392" />

    
    <glyph glyph-name="ai-video" unicode="&#58987;" d="M647.725 55.103c0 0 93.091 0 93.091 93.091v465.453c0 93.091-93.091 93.091-93.091 93.091h-554.634c0 0-93.091 0-93.091-93.091v-465.453c0-93.091 93.091-93.091 93.091-93.091h554.634zM795.041 524.885v-289.605l228.956-180.177-0 651.634-228.956-181.852z"  horiz-adv-x="1024" />

    
    <glyph glyph-name="add1" unicode="&#58881;" d="M512-128c-282.752 0-512 229.248-512 512s229.248 512 512 512 512-229.248 512-512S794.752-128 512-128zM512 768C299.968 768 128 596.032 128 384s171.968-384 384-384 384 171.968 384 384S724.032 768 512 768zM704 320 576 320l0-128c0-35.392-28.608-64-64-64-35.328 0-64 28.608-64 64L448 320 320 320C284.672 320 256 348.608 256 384c0 35.328 28.672 64 64 64l128 0L448 576c0 35.328 28.672 64 64 64 35.392 0 64-28.672 64-64l0-128 128 0c35.392 0 64-28.672 64-64C768 348.608 739.392 320 704 320z"  horiz-adv-x="1024" />

    
    <glyph glyph-name="error2" unicode="&#59037;" d="M575.986694 63.960081C575.986694 28.643968 547.316113-0.026613 512-0.026613 476.683887-0.026613 448.013306 28.643968 448.013306 63.960081 448.013306 99.276194 476.683887 127.951844 512 127.951844 547.316113 127.951844 575.986694 99.35223 575.986694 63.960081ZM512 640.002535C476.683887 640.002535 448.013306 611.331954 448.013306 576.015841L448.013306 256.001267C448.013306 220.685154 476.683887 192.009504 512 192.009504 547.316113 192.009504 575.986694 220.685154 575.986694 256.001267L575.986694 576.015841C575.986694 611.331954 547.316113 640.002535 512 640.002535ZM1023.979724-0.026613C1023.979724-70.729805 966.709529-128.005069 896.006336-128.005069L127.993664-128.005069C57.290471-128.005069 0.020276-70.658839 0.020276-0.026613 0.020276 21.131627 5.216059 41.068224 14.39105 58.688263L14.320083 58.75923 398.250384 826.695867 398.392317 826.695867C419.626593 867.866739 462.455047 895.959448 512 895.959448 561.544953 895.959448 604.373407 867.790703 625.67865 826.6249L1008.311272 61.288689C1018.348003 43.161744 1023.979724 22.216405 1023.979724-0.026613ZM959.99303-0.026613C959.99303 10.876927 957.392604 21.131627 952.191753 30.595555L951.613881 31.680333 951.112044 32.760042 568.621355 797.594416C557.499847 818.828692 535.834701 831.972754 512 831.972754 488.023365 831.972754 466.282184 818.681689 455.160675 797.234513L452.12938 791.455789 92.175714 71.472422 92.677551 70.965517 71.154339 29.221841C66.389426 20.051918 64.00697 10.157121 64.00697-0.097579 64.00697-35.413692 92.748517-64.089342 127.993664-64.089342L896.006336-64.089342C931.322449-64.013306 959.99303-35.342726 959.99303-0.026613Z"  horiz-adv-x="1024" />

    
    <glyph glyph-name="jiaotongshigu" unicode="&#59004;" d="M942.242 326.618c-6.891 0.651-13.876 0.212-20.81 0.489-9.279 0.371-17.897-0.935-24.501-9.153-0.736 2.097-1.277 3.579-1.776 5.074-10.96 32.893-21.896 65.795-32.878 98.681-7.355 22.024-28.253 37.094-51.359 37.095-90.162 0.004-180.326 0.006-270.488-0.002-23.565-0.002-44.285-14.808-51.757-37.06-7.769-23.131-15.446-46.294-23.168-69.439-4.075-12.213-8.161-24.423-12.414-37.148-1.157 1.443-1.943 2.463-2.767 3.45-3.651 4.373-8.259 7.668-13.901 7.912-10.517 0.457-21.136 0.841-31.589-0.105-8.905-0.805-15.096-6.623-17.704-15.327-2.636-8.802 0.013-16.343 6.841-22.36 4.273-3.766 9.387-5.496 15.082-5.496 7.572 0.001 15.143 0 23.107 0 0-73.433 0-146.316 0-219.517 14.692-1.556 28.858-0.993 42.821 2.725 21.298 5.672 31.82 19.621 31.499 43.994-0.082 6.33-2.46 12.629-3.741 18.744 113.913 0 228.532 0 342.305 0-1.315-6.31-3.582-12.489-3.709-18.711-0.316-15.475 3.45-29.793 17.931-38.221 17.413-10.135 36.646-10.009 56.549-8.678 0 73.413 0 146.37 0 219.721 8.564 0 16.567-0.241 24.549 0.056 12.018 0.447 21.49 10.525 21.289 22.221-0.178 10.55-8.599 20.035-19.409 21.055ZM512.956 318.404c6.615 23.755 13.242 47.505 19.875 71.254 5.378 19.257 21.294 31.333 41.357 31.336 69.43 0.009 138.861 0.008 208.291 0.001 20.085-0.003 36.047-11.892 41.565-31.133 7.826-27.289 15.531-54.612 23.283-81.923 0.214-0.75 0.378-1.513 0.683-2.752-113.02 0-225.551 0-338.611 0 1.228 4.577 2.356 8.907 3.556 13.218ZM512.897 195.305c-19.103-0.056-34.597 14.75-34.576 33.045 0.021 18.178 15.248 32.697 34.353 32.753 19.222 0.054 34.685-14.646 34.629-32.925-0.055-18.041-15.519-32.816-34.406-32.873ZM835.037 195.304c-19.077 0.012-34.539 14.892-34.476 33.18 0.063 18.091 15.442 32.624 34.516 32.617 19.263-0.008 34.533-14.653 34.467-33.056-0.066-18.01-15.601-32.751-34.507-32.739ZM386.148 369.321c0.294 23.714 5.59 45.852 15.275 67.002 0.503 1.101-0.003 2.708-0.173 4.062-0.576 4.562-2.236 9.257-1.633 13.646 1.751 12.753 11.929 21.599 25.272 22.684 2.783 0.227 4.568 1.245 6.425 3.189 20.853 21.842 45.828 36.836 75.021 44.691 4.48 1.205 9.03 2.154 14.2 3.376-7.49 4.483-15.116 2.432-22.406 2.929-7.847 0.534-15.085-0.766-20.542-7.87-0.758 2.146-1.215 3.379-1.627 4.626-8.835 26.702-17.662 53.406-26.496 80.107-6.174 18.663-22.712 30.76-42.308 30.768-73.184 0.032-146.369 0.037-219.552-0.003-19.207-0.01-35.802-12.049-41.885-30.2-4.024-12.008-7.983-24.039-11.964-36.061-5.611-16.947-11.216-33.897-17.056-51.546-4.302 6.742-9.834 10.023-17.048 10.147-6.141 0.106-12.287 0.092-18.428-0.006-5.28-0.084-10.005-1.831-13.667-5.716-5.01-5.315-6.628-11.579-3.893-18.466 2.95-7.432 8.782-11.317 16.677-11.68 6.362-0.292 12.747-0.06 19.565-0.06 0-60.07 0-119.693 0-179.553 11.929-1.379 23.249-0.669 34.501 2.169 14.912 3.763 23.286 13.322 25.545 28.348 1.193 7.937 0.186 15.647-3.905 23.414 77.129 0.001 153.567 0.001 230.105 0.001ZM163.524 516.826c5.918 21.465 11.816 42.937 17.799 64.382 4.753 17.037 17.287 26.467 34.995 26.468 56.096 0.003 112.192 0.007 168.288-0.003 15.826-0.003 29.081-9.688 33.458-24.846 6.547-22.673 12.846-45.415 19.238-68.132 0.104-0.366 0.068-0.772 0.137-1.691-91.604 0-182.926 0-274.713 0 0.282 1.373 0.466 2.618 0.798 3.821ZM137.216 449.585c-0.271 14.758 12.267 27.151 27.672 27.352 15.517 0.203 28.105-11.565 28.378-26.523 0.275-15.036-12.198-27.261-27.95-27.401-15.032-0.132-27.832 11.971-28.101 26.572ZM591.522 539.15c7.254 0.506 12.328 4.468 15.462 11.054 15.919 33.463 31.882 66.907 47.826 100.359 4.588 9.627 9.341 19.18 13.693 28.912 5.049 11.29-1.54 23.128-13.657 24.834-3.554 0.5-7.171 0.552-10.485 0.789-5.094-0.364-9.949-0.332-14.661-1.134-7.86-1.34-15.68-3.006-23.409-4.959-3.196-0.808-6.014-2.606-6.786-6.548-4.764-24.335-9.594-48.658-14.522-72.96-3.946-19.458-8.018-38.891-12.143-58.312-1.06-4.992-0.345-9.564 2.386-13.784 3.805-5.88 9.387-8.734 16.296-8.252ZM626.668 510.812c-4.268-5.954-4.911-12.342-1.651-18.869 3.279-6.564 8.89-9.67 15.219-9.892 6.504 0.075 10.888 2.526 14.669 6.447 24.185 25.083 48.404 50.132 72.607 75.2 0.926 0.959 1.849 1.934 2.665 2.984 8.265 10.61 2.22 26.263-11.025 28.575-6.938 1.211-12.47-1.288-17.242-6.241-24.269-25.188-48.591-50.323-72.886-75.486-0.833-0.862-1.662-1.747-2.358-2.719ZM494.387 599.49c4.831-18.156 9.645-36.317 14.509-54.463 2.383-8.89 8.995-14.259 17.453-14.307 12.027-0.066 20.644 10.738 17.519 22.652-9.127 34.8-18.498 69.535-27.818 104.284-1.47 5.478-4.906 9.489-10.129 11.675-6.56 2.743-12.911 2.005-18.443-2.5-5.645-4.597-7.99-10.773-6.188-17.876 4.195-16.532 8.708-32.982 13.095-49.464Z"  horiz-adv-x="1024" />

    
    <glyph glyph-name="saomiao" unicode="&#58900;" d="M708.775642 764.693442l179.428555 0 0-179.428555c0-18.584264 15.069207-33.643238 33.643238-33.643238s33.643238 15.057951 33.643238 33.643238L955.490673 764.693442c0 43.280736-24.00574 67.285452-67.285452 67.285452L708.775642 831.978894c-18.574031 0-33.643238-15.057951-33.643238-33.643238S690.202635 764.693442 708.775642 764.693442zM91.989087 551.621649c18.584264 0 33.643238 15.069207 33.643238 33.643238L125.632325 764.693442l187.838086 0c18.584264 0 33.643238 15.069207 33.643238 33.643238s-15.057951 33.643238-33.643238 33.643238L134.040832 831.979918c-43.280736 0-75.694983-24.00574-75.694983-67.285452l0-179.428555C58.34585 566.690856 73.4038 551.621649 91.989087 551.621649zM921.848459 215.19234c-18.574031 0-33.643238-15.057951-33.643238-33.643238l0-179.429579L708.775642 2.119523c-18.574031 0-33.643238-15.057951-33.643238-33.643238s15.069207-33.643238 33.643238-33.643238l179.428555 0c43.280736 0 67.285452 24.00574 67.285452 67.285452L955.48965 181.549102C955.490673 200.133366 940.421466 215.19234 921.848459 215.19234zM313.470411 2.120546l-187.838086 0L125.632325 181.549102c0 18.574031-15.057951 33.643238-33.643238 33.643238s-33.643238-15.069207-33.643238-33.643238l0-179.429579c0-43.280736 32.41527-67.285452 75.694983-67.285452l179.429579 0c18.584264 0 33.643238 15.069207 33.643238 33.643238S332.054675 2.120546 313.470411 2.120546zM955.490673 405.835308 58.34585 405.835308c-18.574031 0-33.643238-15.057951-33.643238-33.643238 0-18.584264 15.069207-33.643238 33.643238-33.643238l897.145847 0c18.574031 0 33.643238 15.057951 33.643238 33.643238C989.133911 390.777357 974.064704 405.835308 955.490673 405.835308z"  horiz-adv-x="1024" />

    
    <glyph glyph-name="chenggongtishi" unicode="&#58913;" d="M512.564498 882.45204c-276.60419 0-500.710033-224.105843-500.710033-500.710033s224.105843-500.710033 500.710033-500.710033 500.145535 224.105843 500.145535 500.710033S788.60419 882.45204 512.564498 882.45204zM789.168688 448.352811C632.802646 359.162073 476.436604 105.702315 476.436604 105.702315c-134.350606 164.269019-241.040794 197.574421-241.040794 197.574421l134.350606 77.900772c63.223815-60.401323 106.690187-103.867696 106.690187-103.867696 176.123484 336.441014 312.732084 379.907387 312.732084 379.907387L789.168688 448.352811z"  horiz-adv-x="1024" />

    
    <glyph glyph-name="qidian" unicode="&#58940;" d="M642.662387 759.200334c-41.346687 24.686239-87.878466 34.570353-134.440945 34.570353-46.561455 0-93.093235-14.802124-134.439922-34.570353-118.919437-69.140707-155.082054-212.231659-87.877443-325.764412L508.221442 58.267311l222.319411 375.168612C797.745465 546.968675 761.520425 690.059628 642.662387 759.200334zM515.71716 666.544051c10.806113-1.671059 19.11229-2.49789 24.982998-2.49789l56.213279 0c9.118682 0 19.549242 0.827855 31.229259 2.49789-2.49789-11.663644-3.372817-20.407796-2.49789-26.232454l0-61.208037c0-7.494695 0.811482-17.08205 2.49789-28.730345l-28.730345 0c0.811482 5.823636 1.249457 9.993608 1.249457 12.491499l-49.967018 0 0-67.454298c-0.873903-6.667863 2.873444-10.41521 11.242042-11.242042 17.488303-1.671059 32.041764-0.843204 43.721781 2.49789 9.118682 3.325745 13.740956 15.395642 13.740956 36.225039 9.118682-9.993608 18.73776-16.238846 28.730345-18.73776-4.996804-20.829398-11.242042-33.727149-18.73776-38.723953-4.996804-2.49789-17.926278-4.590552-38.723953-6.246261-17.489326-0.843204-30.854728-0.421602-39.97341 1.249457-17.488303 3.325745-25.857924 11.242042-24.982998 23.733541l0 84.942601c-0.873903 4.996804-1.685385 11.242042-2.49789 18.73776 9.993608-1.671059 17.862833-2.49789 23.733541-2.49789l53.714366 0 0 56.212256-53.714366 0c-16.675798 0-27.106358-0.421602-31.229259-1.249457L515.718183 666.544051zM641.882628 405.469987c-63.333444 0-108.302635 1.671059-134.909619 4.996804-27.480888 2.49789-47.093575 7.916297-58.710147 16.238846-21.672602 15.818267-35.413558 30.807656-41.221844 44.970214-5.870708-27.481911-14.177907-52.043307-24.982998-73.700559-6.683213 8.337899-14.989389 15.412015-24.982998 21.23565 20.798698 22.485107 32.04074 62.036915 33.727149 118.66975 22.485107-1.671059 33.727149-4.168949 33.727149-7.494695 0-0.843204-0.436952-1.671059-1.249457-2.49789-4.184299-6.667863-7.494695-16.238846-9.993608-28.730345 7.494695-12.491499 14.989389-23.328311 22.485107-32.477692l0 91.187839L413.286256 557.86791c-14.989389 0-29.605272-0.843204-43.720757-2.49789l0 27.480888c11.617595-0.843204 26.232454-1.671059 43.720757-2.49789l21.23565 0 0 38.723953c-23.359011 0-42.4713-0.843204-57.46069-2.49789l0 26.232454c15.801894-0.843204 34.976606-1.249457 57.46069-1.249457 0.811482 22.485107-0.436952 38.302351-3.747347 47.468105 23.296589-1.671059 34.538631-3.747347 33.727149-6.246261 0-0.843204-0.436952-2.49789-1.249457-4.996804-2.49789-4.168949-3.747347-8.337899-3.747347-12.491499l0-22.485107c22.485107 0 37.849026 0.406253 46.218648 1.249457l0-27.480888c-12.491499 1.655709-27.918863 2.49789-46.218648 2.49789l0-38.723953 11.242042 0c10.80509 0 24.546046 0.827855 41.221844 2.49789l0-27.480888c-14.176884 1.655709-27.91784 2.49789-41.221844 2.49789l-9.993608 0 0-37.474496 9.993608 0c21.61018 0 35.789111 0.405229 42.4713 1.249457l0-28.730345c-14.176884 1.654686-28.355815 2.49789-42.4713 2.49789l-9.993608 0 0-47.468105c31.603789-15.832594 97.80863-18.73776 198.61657-8.744151C648.502395 428.376697 642.694109 417.134655 641.882628 405.469987z"  horiz-adv-x="1024" />

    
    <glyph glyph-name="zhongdian" unicode="&#58941;" d="M552.321846 610.998991c6.302543-18.23941 15.043624-32.509415 26.161846-42.811038 8.680706 7.92346 18.611893 22.594601 29.730115 44.00012C596.321966 611.384777 577.651744 610.998991 552.321846 610.998991zM652.957871 743.207082c-39.392172 23.50125-83.689051 32.910551-127.986953 32.910551-44.296879 0-88.623433-14.09195-127.98593-32.910551-113.211435-65.822125-147.668201-202.043622-83.659375-310.126246l211.646328-357.158423 211.646328 357.158423C800.595372 541.163459 766.10893 677.384957 652.957871 743.207082zM400.106072 558.674275l-3.567245-1.189082-8.324596 24.972764 2.378164 2.378164c26.935466 25.359574 44.357254 54.30072 52.324716 86.811158 19.027355-6.347568 29.730115-11.104919 32.108279-14.270005 0-0.803295-0.831948-1.992377-2.378164-3.567245-3.983731-1.591241-7.135514-4.370541-9.513678-8.324596-1.605567-1.591241-3.567245-4.370541-5.946432-8.324596-21.405519-30.131251-35.675524-47.968501-42.811038-53.513798l41.621956 1.189082c7.135514 10.301623 14.270005 25.359574 21.405519 45.189202 15.816221-7.937786 24.972764-14.671141 27.350928-20.216437 0-0.803295-1.189082-1.992377-3.567245-3.567245-3.211135-1.590218-5.588275-3.567245-7.134491-5.946432-1.605567-1.590218-5.172813-6.347568-10.70276-14.270005-27.767414-38.856983-47.567365-64.216557-59.459207-76.108399 26.935466 4.756327 48.756447 9.112542 65.405639 13.080923l-1.189082-24.972764c-36.508495-4.756327-64.633043-9.513678-84.432994-14.270005l-4.756327-1.189082-11.891841 27.351951 2.378164 1.189082c13.438057 3.954055 31.275307 22.193465 53.513798 54.702879C424.662351 564.218548 410.392346 561.840384 400.106072 558.674275zM400.106072 423.105646l-9.513678 26.161846 104.649432 20.216437 2.378164-23.783683L400.106072 423.105646zM608.213807 394.565636c-19.859303 18.23941-51.551096 35.274388-95.135754 51.135634l16.649192 22.594601c36.449143-15.861246 69.330018-32.509415 98.702999-49.946552L608.213807 394.565636zM615.349321 450.457598c-24.616654 17.437138-49.589418 29.730115-74.919317 36.864606l14.270005 21.405519c15.043624-6.347568 39.599903-17.838274 73.730235-34.486442L615.349321 450.457598zM648.646682 498.024963c-30.919197 11.891841-54.345746 24.972764-70.161966 39.243793-20.6319-15.861246-44.833091-29.730115-72.541153-41.621956-3.983731 9.513678-9.156544 17.437138-15.459087 23.783683 28.54001 7.92346 52.323693 19.413142 71.351048 34.486442-11.118222 13.467733-18.670222 26.161846-22.594601 38.054711-10.345626-17.451464-19.859303-31.722492-28.541033-42.811038-4.756327 6.332219-12.307304 10.70276-22.594601 13.080923 24.557302 26.949792 45.189202 64.602344 61.83737 112.973004 11.059893-2.378164 22.179139-6.748704 33.29736-13.080923 0-0.803295-0.831948-1.992377-2.378164-3.567245-6.361895-5.559623-12.724813-14.672164-19.027355-27.351951 43.584658 0.787946 72.124667 1.977028 85.622076 3.567245-11.118222-26.161846-28.956495-53.513798-53.513798-82.054831 17.421788-13.482059 41.978067-22.208814 73.730235-26.161846C660.538523 520.218428 654.176628 510.70475 648.646682 498.024963z"  horiz-adv-x="1024" />

    
    <glyph glyph-name="shanchu" unicode="&#58916;" d="M584.817778 194.56c-10.524444 0-18.962963 6.068148-18.962963 19.531852L565.854815 481.09037c0 13.463704 8.438519 21.428148 18.962963 21.428148 10.524444 0 18.962963-7.964444 18.962963-21.428148l0-266.998519c0-13.463704-8.438519-20.48-18.962963-20.48L584.817778 194.56zM439.182222 192.663704c-10.524444 0-18.962963 7.964444-18.962963 21.428148L420.219259 481.09037c0 13.463704 8.438519 20.48 18.962963 20.48 10.524444 0 18.962963-7.016296 18.962963-20.48l0-266.998519C458.145185 200.628148 449.706667 192.663704 439.182222 192.663704L439.182222 192.663704zM827.543704 602.453333l-121.362963 0 0 48.545185c0 40.106667-32.426667 72.817778-72.248889 72.817778L390.637037 723.816296c-40.106667 0-72.817778-32.711111-72.817778-72.817778l0-48.545185-121.362963 0c-13.463704 0-24.272593-6.068148-24.272593-19.531852s10.808889-19.531852 24.272593-19.531852l631.087407 0c13.463704 0 24.272593 6.068148 24.272593 19.531852S841.007407 602.453333 827.543704 602.453333L827.543704 602.453333zM356.882963 660.48c0 13.368889 10.903704 24.272593 24.272593 24.272593l262.257778 0c13.274074 0 23.703704-10.619259 23.703704-24.272593l0-58.026667L356.882963 602.453333 356.882963 660.48 356.882963 660.48zM682.002963 53.665185 342.281481 53.665185c-54.044444 0-72.912593 20.29037-72.912593 72.912593l0 354.228148c0 14.317037 6.068148 25.884444 20.385185 24.841481 12.61037-0.948148 18.678519-11.377778 18.678519-24.177778l0-364.468148c0-13.368889 10.903704-24.272593 24.272593-24.272593l358.684444 0c13.463704 0 24.367407 10.903704 24.367407 24.367407L715.757037 480.426667c0 13.368889 6.068148 24.272593 19.531852 24.272593 13.463704 0 19.531852-10.903704 19.531852-24.272593l0-353.943704C754.820741 70.162963 737.28 53.665185 682.002963 53.665185L682.002963 53.665185z"  horiz-adv-x="1024" />

    
    <glyph glyph-name="error3" unicode="&#59002;" d="M422.4 145.066667 422.4 145.066667 422.4 145.066667zM512 896C230.4 896 0 665.6 0 384s230.4-512 512-512 512 230.4 512 512S793.6 896 512 896zM512-64C264.533333-64 64 136.533333 64 384S264.533333 832 512 832 960 631.466667 960 384 759.466667-64 512-64zM693.0176 613.297493l51.28832-51.28832-410.30656-410.30656-51.28832 51.28832 410.30656 410.30656ZM282.702507 565.0176l51.28832 51.28832 410.30656-410.30656-51.28832-51.28832-410.30656 410.30656Z"  horiz-adv-x="1024" />

    
    <glyph glyph-name="reporterror" unicode="&#58937;" d="M594.137507 896c199.190609-344.004472 395.519285-682.285075 594.137507-1024-397.236445 0-790.466182 0-1188.275014 0C198.045836 213.714925 394.946898 552.567915 594.137507 896zM544.912241 250.34768c33.770822 0 65.824483 0 98.450531 0 0 70.975964 0 140.234768 0 209.493572-33.770822 0-65.252096 0-98.450531 0C544.912241 390.010061 544.912241 321.323644 544.912241 250.34768zM545.484628 138.732253c0-35.487982 0-69.258804 0-103.029625 33.198435 0 65.252096 0 97.878144 0 0 34.915595 0 68.686417 0 103.029625C610.164338 138.732253 578.683063 138.732253 545.484628 138.732253z"  horiz-adv-x="1189" />

    
    <glyph glyph-name="buoumaotubiao37" unicode="&#58914;" d="M838.337049-128 191.104217-128c-44.965698 0-81.572685 36.606987-81.572685 81.595839L109.531532 600.782363c0 44.988852 36.606987 81.595839 81.572685 81.595839l647.232832 0c44.965698 0 81.572685-36.606987 81.572685-81.595839l0-647.186523C919.909734-91.393013 883.302747-128 838.337049-128zM191.104217 636.092708c-19.449633 0-35.264036-15.837558-35.264036-35.287191l0-647.186523c0-19.449633 15.837558-35.287191 35.264036-35.287191l647.232832 0c19.449633 0 35.264036 15.837558 35.264036 35.287191L873.601085 600.782363c0 19.449633-15.837558 35.287191-35.264036 35.287191L191.104217 636.069553zM225.28 474.012436l578.858112 0 0-46.308649-578.858112 0 0 46.308649ZM225.28 288.777841l578.858112 0 0-46.308649-578.858112 0 0 46.308649ZM225.28 80.38892l578.858112 0 0-46.308649-578.858112 0 0 46.308649ZM754.217388 636.092708 285.666478 636.092708c-17.273126 0-31.767733 7.779853-39.779129 21.371441-8.24294 13.985212-7.918779 31.837196 0.879864 47.767371l77.729067 144.436676c14.911385 27.044251 48.369384 41.12208 73.792832 41.12208l243.305642 0c28.456665 0 60.154935-18.569768 73.67706-43.205969l77.867993-141.079299c8.937569-16.138564 9.169112-34.384172 0.648321-48.809316C785.799887 644.173567 771.027428 636.092708 754.217388 636.092708zM287.148355 682.563437l466.235478-0.16208c-0.185235 0.486241-0.416778 1.041945-0.764093 1.71342l-77.891148 141.125608c-5.441266 9.910051-21.556676 19.241244-33.133838 19.241244L398.289112 844.481628c-12.433872 0-28.225122-8.080859-33.110684-16.948966l-77.752222-144.482985C287.33359 682.864443 287.240972 682.725517 287.148355 682.563437zM519.941933 708.403663c-38.297253 0-69.462973 31.165721-69.462973 69.462973s31.165721 69.462973 69.462973 69.462973 69.462973-31.165721 69.462973-69.462973S558.239186 708.403663 519.941933 708.403663zM519.941933 801.020961c-12.781187 0-23.154324-10.396292-23.154324-23.154324s10.373137-23.154324 23.154324-23.154324 23.154324 10.396292 23.154324 23.154324S532.72312 801.020961 519.941933 801.020961z"  horiz-adv-x="1024" />

    
    <glyph glyph-name="jiantou" unicode="&#58911;" d="M341.957209-63.354678c-12.893658 0-25.842575 4.425799-36.386722 13.467733-23.493064 20.10592-26.224268 55.426357-6.064113 78.891791L603.929736 384.210801l-304.423361 355.206978c-20.160155 23.465434-17.427928 58.786894 6.064113 78.891791 23.437805 20.024056 58.786894 17.373693 78.837556-6.064113l335.675132-391.620305c17.974373-20.952194 17.974373-51.875484 0-72.827679l-335.675132-391.620305C373.371686-56.717514 357.691565-63.354678 341.957209-63.354678z"  horiz-adv-x="1024" />

    
    <glyph glyph-name="error4" unicode="&#59106;" d="M512 856.615385C252.061538 856.615385 39.384615 643.938462 39.384615 384s212.676923-472.615385 472.615385-472.615385 472.615385 212.676923 472.615385 472.615385S771.938462 856.615385 512 856.615385z m234.338462-506.092308c-1.969231-13.784615-13.784615-25.6-29.538462-25.6H307.2c-15.753846 0-27.569231 9.846154-29.538462 25.6-1.969231 23.630769-1.969231 45.292308 0 66.953846 1.969231 13.784615 13.784615 25.6 29.538462 25.6h409.6c15.753846 0 27.569231-11.815385 29.538462-25.6 1.969231-23.630769 1.969231-45.292308 0-66.953846z"  horiz-adv-x="1024" />

    
    <glyph glyph-name="ok2" unicode="&#58899;" d="M512 896C229.216 896 0 666.752 0 384c0-282.784 229.216-512 512-512 282.752 0 512 229.216 512 512 0 282.752-229.248 512-512 512z m292.608-357.024l-320-384c-12.128-14.56-30.08-23.008-49.024-23.072h-0.128a63.936 63.936 0 0 0-48.992 22.88l-167.52 199.488a64 64 0 1 0 97.952 82.368l118.336-140.96 271.04 325.248a64.032 64.032 0 0 0 98.336-81.952z"  horiz-adv-x="1024" />

    
    <glyph glyph-name="jiazaizhong" unicode="&#59054;" d="M522.695 893.996c-26.328-0.155-47.409-21.476-47.676-48.729-0.257-26.485-0.055-52.974-0.05-79.461 0.004-27.256-0.366-54.518 0.11-81.764 0.474-27.068 22.02-47.142 49.348-46.906 26.218 0.226 47.58 21.01 47.72 47.448 0.29 53.743 0.312 107.487-0.023 161.227-0.173 27.68-21.87 48.346-49.43 48.185M326.793 805.923c-8.325 14.2-21.646 21.261-38.304 21.344-35.143-0.011-56.58-36.964-38.987-68.179 25.967-46.074 52.392-91.892 78.987-137.609 12.958-22.276 40.047-29.326 61.818-16.884 21.313 12.182 29.678 38.962 17.389 60.85-26.455 47.117-53.572 93.864-80.903 140.478M98.085 571.388c44.324-25.791 88.79-51.335 133.2-76.98 6.717-3.877 13.685-6.905 21.69-6.407 20.138-0.155 35.974 11.937 41.324 31.547 4.988 18.277-2.687 36.75-20.245 46.999-44.619 26.047-89.355 51.89-134.104 77.711-22.53 13-47.819 7.027-59.831-13.9-12.204-21.26-4.972-45.624 17.966-58.97M132.246 335.421c26.402 0.012 52.806-0.205 79.205 0.076 23.402 0.25 39.153 16.414 38.792 39.135-0.343 21.605-16.908 37.37-39.572 37.393-51.658 0.053-103.313 0.058-154.97-0.044-24.169-0.048-40.72-15.973-40.573-38.687 0.145-22.154 16.58-37.741 40.207-37.854 25.637-0.125 51.273-0.03 76.911-0.019M283.95 235.21c-9.377 16.285-29.938 22.574-46.86 12.936-46.539-26.505-92.788-53.532-139.017-80.58-11.102-6.496-16.312-16.854-16.47-25.361 0.05-30.556 27.22-47.959 50.392-35.08 47.144 26.196 93.71 53.46 140.135 80.928 17.173 10.159 21.49 30.361 11.82 47.158M375.85 133.558c-14.276 4.056-27.646-1.453-35.88-15.671a24375.495 24375.495 0 0 1-77.274-134.463c-10.014-17.549-5.87-35.683 9.76-45.025 16.032-9.58 34.249-4.06 44.72 13.999 25.553 44.06 50.901 88.241 76.371 132.35 3.308 5.73 5.693 11.684 5.749 14.926 0.018 17.818-9.264 29.855-23.446 33.884M523.3 89.256c-16.404-0.09-27.34-11.912-27.45-30.163-0.154-25.348-0.04-50.698-0.04-76.049h-0.07c0-26.116-0.134-52.236 0.046-78.352 0.124-18.272 11.055-30.073 27.446-30.21 16.944-0.138 28.06 11.825 28.104 30.743 0.117 51.08 0.135 102.164 0.07 153.247-0.022 18.787-11.227 30.876-28.105 30.784M700.484 115.372c-7.479 12.823-21.904 16.024-33.786 8.877-11.458-6.894-15.558-20.625-8.514-33.023 26.278-46.257 52.916-92.306 79.61-138.322 4.513-7.777 11.658-11.965 20.924-11.822 18.558 0.139 30.524 19.329 21.229 35.888-26.041 46.387-52.663 92.45-79.463 138.402M940.424 156.56a79664.678 79664.678 0 0 1-135.94 78.637c-4.706 2.716-9.744 4.34-15.36 2.96-9.123-2.239-14.943-8.034-16.512-17.098-1.884-10.874 3.844-18.207 12.89-23.424 29.79-17.182 59.559-34.395 89.34-51.59 15.224-8.79 30.236-17.976 45.743-26.232 14.672-7.811 31.04 2.034 31.056 18.035-0.07 8.438-4.095 14.584-11.217 18.713M989.291 391.193c-24.87 0.092-49.739 0.025-74.61 0.025v0.053c-25.252 0-50.506 0.072-75.757-0.03-13.45-0.05-20.964-6.333-21.164-17.287-0.202-11.133 7.07-17.521 20.66-17.551 50.505-0.113 101.01-0.134 151.516-0.074 13.36 0.014 21.172 6.474 21.384 17.133 0.214 10.847-8.113 17.678-22.029 17.73M801.34 518.355a74243.83 74243.83 0 0 1 135.165 78.22c4.863 2.823 8.24 6.855 8.122 12.945-0.124 11.033-11.184 17.42-21.48 11.527C877.632 595 832.29 568.658 787 542.224c-7.66-4.47-10.518-11.52-5.572-19.557 4.835-7.855 12.086-8.83 19.912-4.312M679.047 633.458c5.183 0.247 8.187 3.411 10.594 7.652 4.915 8.66 10.025 17.207 14.994 25.837 20.45 35.519 40.921 71.023 61.282 106.592 5.084 8.88 3.025 16.663-4.766 18.531-7.674 1.84-10.907-3.69-14.053-9.16-22.924-39.838-45.87-79.667-68.787-119.512-2.864-4.98-6.02-9.852-8.295-15.1-3.126-7.197 1.67-14.648 9.031-14.84"  horiz-adv-x="1024" />

    
    <glyph glyph-name="gesture_success" unicode="&#58978;" d="M243.2-10.666667c-6.4 0-12.8 2.133333-17.066667 8.533334-6.4 8.533333-4.266667 23.466667 4.266667 29.866666 172.8 130.133333 166.4 217.6 162.133333 328.533334-2.133333 21.333333-2.133333 44.8-2.133333 68.266666 0 55.466667 44.8 102.4 102.4 102.4 55.466667 0 98.133333-44.8 102.4-100.266666 0-12.8-8.533333-21.333333-21.333333-21.333334s-21.333333 8.533333-21.333334 21.333334c-2.133333 34.133333-27.733333 59.733333-59.733333 59.733333-32 0-59.733333-25.6-59.733333-59.733333 0-23.466667 2.133333-44.8 2.133333-66.133334 6.4-119.466667 12.8-221.866667-179.2-364.8-4.266667-6.4-8.533333-6.4-12.8-6.4zM433.066667-78.933333c-4.266667 0-10.666667 2.133333-14.933334 6.4-8.533333 8.533333-8.533333 21.333333 0 29.866666 19.2 21.333333 36.266667 42.666667 51.2 66.133334 6.4 10.666667 19.2 12.8 29.866667 6.4 10.666667-6.4 12.8-19.2 6.4-29.866667-17.066667-25.6-36.266667-49.066667-57.6-72.533333-4.266667-4.266667-8.533333-6.4-14.933333-6.4zM168.533333 44.8c-8.533333 0-14.933333 4.266667-19.2 10.666667-6.4 10.666667-2.133333 23.466667 8.533334 29.866666 164.266667 87.466667 157.866667 183.466667 153.6 285.866667 0 17.066667-2.133333 36.266667-2.133334 53.333333 0 100.266667 81.066667 181.333333 181.333334 181.333334 89.6 0 164.266667-64 179.2-151.466667 2.133333-10.666667-6.4-23.466667-17.066667-25.6-10.666667-2.133333-23.466667 6.4-25.6 17.066667-10.666667 66.133333-70.4 115.2-136.533333 115.2-76.8 0-138.666667-61.866667-138.666667-138.666667 0-17.066667 0-34.133333 2.133333-51.2 6.4-106.666667 10.666667-226.133333-174.933333-326.4h-10.666667zM546.133333-78.933333c-4.266667 0-8.533333 2.133333-12.8 4.266666-8.533333 6.4-10.666667 21.333333-4.266666 29.866667 2.133333 4.266667 4.266667 6.4 6.4 10.666667 6.4 10.666667 19.2 12.8 29.866666 6.4 10.666667-6.4 12.8-19.2 6.4-29.866667-2.133333-4.266667-6.4-8.533333-8.533333-10.666667-4.266667-8.533333-10.666667-10.666667-17.066667-10.666666zM110.933333 134.4c-10.666667 0-19.2 6.4-21.333333 17.066667-2.133333 10.666667 4.266667 23.466667 17.066667 25.6 147.2 32 138.666667 110.933333 125.866666 209.066666-2.133333 12.8-2.133333 23.466667-4.266666 36.266667-6.4 64 14.933333 128 61.866666 177.066667 51.2 55.466667 125.866667 87.466667 200.533334 87.466666 132.266667 0 243.2-98.133333 260.266666-230.4 2.133333-10.666667-6.4-21.333333-19.2-23.466666-10.666667-2.133333-21.333333 6.4-23.466666 19.2-12.8 108.8-106.666667 192-217.6 192-64 0-128-27.733333-170.666667-74.666667-36.266667-40.533333-55.466667-91.733333-51.2-142.933333 0-10.666667 2.133333-23.466667 4.266667-34.133334 10.666667-100.266667 23.466667-215.466667-160-256 0-2.133333-2.133333-2.133333-2.133334-2.133333zM328.533333-51.2c-6.4 0-10.666667 2.133333-14.933333 6.4-8.533333 8.533333-8.533333 21.333333 0 29.866667 46.933333 44.8 81.066667 87.466667 104.533333 130.133333 6.4 10.666667 19.2 12.8 29.866667 8.533333 10.666667-6.4 12.8-19.2 8.533333-29.866666-25.6-46.933333-64-91.733333-113.066666-138.666667-4.266667-6.4-8.533333-6.4-14.933334-6.4zM145.066667 258.133333c-8.533333 0-19.2 2.133333-27.733334 6.4-14.933333 8.533333-27.733333 21.333333-32 38.4-12.8 40.533333-17.066667 81.066667-17.066666 121.6 0 113.066667 44.8 219.733333 123.733333 298.666667 78.933333 81.066667 185.6 123.733333 298.666667 123.733333 113.066667 0 219.733333-44.8 298.666666-123.733333 78.933333-78.933333 123.733333-185.6 123.733334-298.666667v-46.933333c0-12.8-10.666667-21.333333-21.333334-21.333333-12.8 0-21.333333 10.666667-21.333333 21.333333v46.933333c0 102.4-40.533333 196.266667-110.933333 268.8-70.4 72.533333-166.4 110.933333-268.8 110.933334s-196.266667-40.533333-268.8-110.933334C149.333333 620.8 110.933333 524.8 110.933333 424.533333c0-38.4 6.4-74.666667 17.066667-110.933333 2.133333-4.266667 4.266667-8.533333 10.666667-12.8 4.266667-2.133333 10.666667-2.133333 14.933333 0 8.533333 4.266667 14.933333 12.8 12.8 23.466667-10.666667 32-14.933333 66.133333-14.933333 100.266666 0 91.733333 36.266667 177.066667 100.266666 243.2 64 64 151.466667 100.266667 243.2 100.266667s177.066667-36.266667 243.2-100.266667c61.866667-61.866667 98.133333-145.066667 100.266667-234.666666 0-12.8-8.533333-21.333333-21.333333-21.333334-10.666667 0-21.333333 8.533333-21.333334 21.333334-2.133333 76.8-34.133333 149.333333-87.466666 204.8C646.4 693.333333 571.733333 725.333333 490.666667 725.333333c-81.066667 0-155.733333-32-213.333334-87.466666-57.6-57.6-87.466667-132.266667-87.466666-213.333334 0-29.866667 4.266667-59.733333 12.8-87.466666 8.533333-32-6.4-64-38.4-74.666667-6.4-4.266667-12.8-4.266667-19.2-4.266667zM492.8 337.066667c-10.666667 0-21.333333 8.533333-21.333333 21.333333v21.333333 42.666667c0 12.8 8.533333 21.333333 21.333333 21.333333s21.333333-8.533333 21.333333-21.333333v-64c0-10.666667-10.666667-21.333333-21.333333-21.333333zM727.466667-91.733333c-10.666667 0-23.466667 0-34.133334 2.133333-117.333333 14.933333-211.2 110.933333-226.133333 226.133333-8.533333 74.666667 12.8 151.466667 64 206.933334 57.6 64 145.066667 98.133333 230.4 87.466666 117.333333-14.933333 211.2-110.933333 226.133333-226.133333 8.533333-74.666667-12.8-151.466667-64-206.933333-49.066667-55.466667-119.466667-89.6-196.266666-89.6z m0 484.266666c-64 0-123.733333-27.733333-164.266667-74.666666-42.666667-49.066667-61.866667-108.8-53.333333-174.933334 12.8-98.133333 91.733333-177.066667 189.866666-189.866666 72.533333-8.533333 145.066667 19.2 194.133334 72.533333 42.666667 49.066667 61.866667 108.8 53.333333 174.933333-12.8 98.133333-91.733333 177.066667-189.866667 189.866667-10.666667 0-19.2 2.133333-29.866666 2.133333zM691.2 53.333333c-6.4 0-10.666667 2.133333-14.933333 6.4l-64 64c-8.533333 8.533333-8.533333 21.333333 0 29.866667 8.533333 8.533333 21.333333 8.533333 29.866666 0l49.066667-49.066667 162.133333 162.133334c8.533333 8.533333 21.333333 8.533333 29.866667 0 8.533333-8.533333 8.533333-21.333333 0-29.866667l-177.066667-177.066667c-4.266667-4.266667-8.533333-6.4-14.933333-6.4z"  horiz-adv-x="1024" />

    
    <glyph glyph-name="shipin" unicode="&#58959;" d="M724.032 331.392v105.6c0 10.56 3.52 22.72 8.384 27.776l115.584 118.976c37.824 38.912 81.344 49.856 81.344 8.128v-415.424c0-41.664-43.52-30.784-81.344 8.128l-115.584 118.976c-4.864 4.992-8.384 17.216-8.384 27.84zM669.376 214.208a64 64 0 0 0-64-64h-446.72a64 64 0 0 0-64 64V554.24a64 64 0 0 0 64 64h446.72a64 64 0 0 0 64-64v-340.032z"  horiz-adv-x="1024" />

    
    <glyph glyph-name="add2" unicode="&#58883;" d="M797.1 832H226.9C136.9 832 64 759.1 64 669.1v-570.2c0-90 72.9-162.9 162.9-162.9h570.2c90 0 162.9 72.9 162.9 162.9V669.1c0 90-72.9 162.9-162.9 162.9m0.1-529.5H593.5v-203.7h-163V302.5H226.9v163h203.6V669.1h162.9v-203.6h203.8v-163z"  horiz-adv-x="1024" />

    
    <glyph glyph-name="error5" unicode="&#58955;" d="M438.429538 896h113.427693c244.184615-16.226462 453.868308-224.649846 471.985231-468.676923l0.157538 28.356923v-111.537231c-16.384-244.184615-224.649846-454.025846-468.992-471.985231l28.041846-0.157538h-110.592C228.115692-111.931077 18.116923 96.492308 0.157538 340.834462L0 310.429538v113.74277C16.541538 668.199385 224.649846 877.568 468.676923 895.842462L438.429538 896m-22.370461-91.529846C204.957538 760.674462 51.042462 541.065846 84.598154 327.443692c24.260923-223.547077 245.917538-400.305231 469.464615-372.578461 235.204923 16.699077 423.463385 253.321846 385.339077 486.636307C913.408 684.740923 653.469538 866.382769 416.059077 804.470154zM478.916923 699.549538c46.631385 25.678769 113.270154-14.178462 108.228923-68.52923-8.664615-106.023385-22.370462-211.889231-34.343384-317.755077-1.260308-25.363692-18.116923-61.44-49.152-53.878154-27.884308 10.712615-31.507692 43.165538-34.658462 68.686769-10.24 95.468308-21.740308 191.094154-31.507692 286.562462-6.459077 33.713231 8.979692 71.049846 41.432615 84.91323zM470.567385 201.728c46.788923 33.083077 120.201846-4.883692 117.68123-63.172923 4.096-54.823385-61.755077-96.256-109.646769-69.947077-52.775385 22.055385-57.344 104.605538-8.034461 133.12z"  horiz-adv-x="1024" />

    
    <glyph glyph-name="touxiang" unicode="&#58885;" d="M54.583 839.371V-71.37h914.835V839.37H54.583zM881.8 22.431v-19.789H773.427l17.07 0.236H602.761v0.007h-19.284l-30.402-0.244H142.143v19.79s-8.922 110.538 153.861 138.834c0 0 123.92 16.73 132.59 50.805 0 0 4.735 3.79 1.243 43.369-7.433 84.27-62.581 123.926-84.88 156.141-22.308 32.222-24.165 69.396-24.165 69.396 0 9.291 3.893 12.695 10.356 18.664 8 7.38 5.601 15.227 4.07 23.53-5.807 31.538-6.32 82.207-0.792 113.945 1.237 37.795 35.93 68.153 35.93 68.153 6.514 5.52 13.036 11.601 17.606 18.89 1.277 2.028 2.452 4.205 3.144 6.512 2.613 8.7-6.235 15.087-4.454 24.344 1.596 8.343 15.903 8.754 24.548 9.21 19.478 1.025 39.06 1.794 58.501 0.3 145.551-11.155 193.41-64.738 193.41-64.738 11.326-13.569 18.789-30.16 23.292-47.167 1.334-5.085 2.491-10.276 3.116-15.505 4.535-26.067 4.52-53.251 3.11-79.593-0.67-12.56-2.128-24.922-3.98-37.354-0.96-6.502-0.464-12.557 3.877-17.753 3.637-4.345 7.793-7.384 9.575-13.098 0.835-2.67 1.05-5.554 1.05-8.341 0 0-1.858-37.175-24.166-69.398-22.308-32.219-77.446-71.866-84.885-156.14-3.491-39.573 1.239-43.364 1.239-43.364 8.678-34.083 132.594-50.807 132.594-50.807 164.61-30.528 153.868-138.836 153.868-138.836z"  horiz-adv-x="1024" />

    
    <glyph glyph-name="err" unicode="&#59057;" d="M512.115122 830.336488c-246.407016 0-446.159456-199.754486-446.159456-446.161503 0-246.412133 199.75244-446.164572 446.159456-446.164572 246.413156 0 446.164572 199.75244 446.164572 446.164572 0 246.407016-199.751417 446.161503-446.164572 446.161503z m1.571798-143.779638c25.659403 0 46.526663-20.86726 46.526663-46.517453s-20.86726-46.52871-46.526663-46.528709c-25.642007 0-46.515407 20.878516-46.515406 46.528709 0.001023 25.651216 20.874423 46.517453 46.515406 46.517453z m47.538713-556.932351c0-26.219151-21.325701-47.538713-47.538713-47.538713-26.206872 0-47.533596 21.319561-47.533596 47.538713V480.255251c0 26.209942 21.325701 47.538713 47.533596 47.538713 26.213012 0 47.538713-21.328771 47.538713-47.538713v-350.630752z"  horiz-adv-x="1024" />

    
    <glyph glyph-name="suotoucopy" unicode="&#58882;" d="M489.088 234.88a89.344 89.344 0 1 0 0 178.688 89.344 89.344 0 0 0 0-178.624z m0 35.776a53.632 53.632 0 1 1 0 107.2 53.632 53.632 0 0 1 0-107.2zM453.376 252.8H524.8v-178.688H453.376zM274.688 502.912c-78.976 0-142.976-64-142.976-142.912v-250.176c0-78.912 64-142.912 142.976-142.912h428.8c78.912 0 142.912 64 142.912 142.912V360c0 78.912-64 142.912-142.912 142.912h-428.8z m0 35.712h428.8a178.688 178.688 0 0 0 178.688-178.624v-250.176a178.688 178.688 0 0 0-178.688-178.624h-428.8A178.688 178.688 0 0 0 96 109.824V360a178.688 178.688 0 0 0 178.688 178.624zM310.4 517.76V681.6a178.688 178.688 0 1 0 357.376 0l35.712-0.64a214.4 214.4 0 0 1-428.8 0.64v-178.688l35.712 14.848z m0 163.84a178.688 178.688 0 1 0 357.376 0l35.712-0.64a214.4 214.4 0 0 1-428.8 0.64v-178.688l35.712 14.848V681.6z"  horiz-adv-x="1024" />

    
    <glyph glyph-name="user1" unicode="&#58880;" d="M692.9572330000001 775.2267351111111c8.646916-34.78766 9.499907-37.689632 8.703915-73.414283-0.312997-13.766866-8.21992-77.454244-6.087941-96.99505299999998 1.763983-16.099843 5.774944-17.37983 12.145881999999999-30.662701 11.036892-23.096774 7.338928-54.954463 3.099969-78.249235-2.331977-12.743876-7.223929-30.890698-14.704856-41.301597-8.21992-11.491888-24.689759-11.547887-31.942687999999997-24.945756-10.495898-19.256811999999996-4.579955-46.306548-11.178891-67.128345-7.509927-23.57977-26.65174-25.229754-28.074726-56.119452 9.358909-1.3089869999999997 18.716817-2.673974 28.074726-3.9829609999999995 9.386908-19.939805 26.566741-60.073413 44.116569-72.162295 14.705855999999999-4.010961 29.383713-8.049921 44.08957-12.031882999999999 51.539497-21.134793999999996 108.768938-46.392547 160.36843399999998-68.152334 47.017540999999994-19.825806 103.278991-26.908737 120.28882499999999-76.202256 0-33.449673 3.157969-112.496901 2.304977-156.357473H0.1699980000000778c-0.881991 43.86057199999999 2.274978 122.9068 2.274978 156.35847299999995 16.981834 49.29251899999999 73.272284 56.34745 120.290825 76.201256 51.625496 21.759788 108.883937 47.017540999999994 160.36843399999998 68.152334 14.704856 3.981961 29.410712999999998 8.020922 44.116569 12.031882999999999 17.549829 12.088881999999996 34.729661 52.22349 44.08857 72.162295l20.877796 5.062951c-4.721954 26.367743-21.048793999999997 28.415723-27.846728 47.04653999999999-2.673974 28.074726-5.319947999999999 56.149452-7.992922 84.195178 0.113999-1.336987-19.199813 3.526966-21.759787 5.09195-27.220734 17.065833-27.761729 86.356157-30.378704 115.169876-1.1939879999999998 13.169871 17.094833 23.978766 12.031882999999999 48.12753-29.865707999999998 141.424619 12.913874 207.58597299999997 80.469214 229.544758 46.904542 18.999814 134.511686 54.24247 216.231888 3.981961l20.252802-18.772817 32.82468-5.659944c16.439839-9.500906999999998 26.936737-40.989599999999996 26.936737-40.989599999999996z"  horiz-adv-x="1024" />

    
    <glyph glyph-name="weixiu" unicode="&#58891;" d="M148.88664 311.2c-11.2 0-21.6 4-29.6 12L12.08664 430.4c-8 8-12.8 20.8-12 32 0.8 12 5.6 23.2 13.6 31.2l39.2 39.2c8.8 8.8 18.4 12.8 31.2 13.6h4.8l-11.2 11.2 244.8 245.6 18.4-18.4 1.6 0.8c36 23.2 69.6 37.6 100 43.2 8 1.6 16 2.4 24.8 2.4 26.4 0 48-8.8 64.8-24.8l22.4-22.4L448.08664 676.8l43.2-43.2-70.4-70.4 118.4-118.4-24.8-24.8-143.2 143.2 70.4 70.4-43.2 43.2 106.4 106.4-0.8 0.8c-9.6 8-21.6 12-36.8 12-6.4 0-12-0.8-18.4-1.6-28-4.8-61.6-20-100-46.4l-11.2-9.6-14.4 14.4-196.8-196 22.4-22.4-41.6-40.8-15.2 15.2c-1.6 1.6-2.4 2.4-5.6 2.4-4 0-6.4-0.8-8.8-4l-38.4-39.2c-2.4-2.4-4-5.6-4-8 0-3.2 0.8-4.8 1.6-5.6L144.08664 348c1.6-1.6 3.2-2.4 5.6-2.4 4 0 7.2 2.4 9.6 4l38.4 38.4c2.4 2.4 4 4.8 4 8 0 2.4-0.8 4.8-2.4 6.4l-15.2 16 41.6 41.6 22.4-22.4 61.6 61.6 142.4-142.4-24.8-24.8-119.2 118.4-61.6-61.6-11.2 11.2v-4.8c-0.8-12-5.6-23.2-13.6-31.2l-39.2-38.4c-8-8-18.4-12.8-30.4-13.6l-1.6-0.8h-1.6zM768.08664-52c-8.8 0-16 3.2-21.6 9.6L509.68664 210.4l24.8 24 235.2-251.2 0.8 0.8 113.6 114.4 1.6 2.4-1.6 2.4-253.6 225.6 22.4 25.6 260.8-230.4c6.4-6.4 9.6-13.6 9.6-21.6 0-11.2-4.8-21.6-13.6-28.8l-112.8-112.8c-8.8-8.8-19.2-12.8-28.8-12.8zM236.08664-48.8c-23.2 0-45.6 8.8-62.4 25.6-16.8 16.8-25.6 38.4-25.6 62.4s8.8 45.6 25.6 62.4l423.2 423.2-0.8 1.6C561.68664 588.8 573.68664 668.8 624.08664 720l58.4 58.4c31.2 31.2 72 48 116 48 32.8 0 64-9.6 91.2-28l17.6-11.2-132.8-133.6 76-76 135.2 135.2 11.2-17.6c43.2-65.6 34.4-152.8-20.8-207.2l-59.2-59.2c-31.2-31.2-72-48-116-48-27.2 0-54.4 6.4-78.4 19.2l-2.4 0.8-422.4-422.4c-15.2-17.6-38.4-27.2-61.6-27.2zM800.08664 792.8c-34.4 0-68-13.6-92.8-38.4L648.88664 696c-44-43.2-51.2-112-16.8-164l8-11.2-443.2-443.2c-20.8-20.8-20.8-55.2 0-76 10.4-10.4 23.2-15.2 37.6-15.2 13.6 0 28 5.6 38.4 16l442.4 442.4 11.2-8c21.6-13.6 47.2-21.6 72-21.6 34.4 0 68 13.6 92.8 38.4l59.2 59.2c37.6 37.6 48.8 95.2 28 143.2l-0.8 2.4-128-128-124 123.2 128 128-2.4 0.8c-16 7.2-32.8 10.4-51.2 10.4z"  horiz-adv-x="1024" />

    
    <glyph glyph-name="guijitu" unicode="&#58910;" d="M889.632 555.008c8.992-13.408 18.208-26.688 27.264-40.16l1.088-0.544c10.88 17.312 21.6 34.624 32.448 51.968 16.768 25.248 35.2 44.928 45.152 78.112 19.328 64.128-26.528 111.648-87.168 110.56l-12.896-2.208c-14.56-4.256-29.472-13.44-37.984-23.968-6.976-8.64-13.952-17.888-18.4-29.056-11.424-28.384-2.56-61.184 9.6-80.928 13.6-21.216 27.232-42.592 40.896-63.776z m-12.96 125.664c6.08 19.36 19.04 23.232 37.408 30.784 58.048 0.864 59.2-81.312 5.568-89.376-27.264-4.224-51.808 30.4-42.976 58.592zM271.424 211.744c33.728 47.2 65.6 84.384 85.504 147.392 44.224 140.768-45.504 256.256-183.104 253.92-10.72-4.256-26.72-2.784-37.408-6.08-32.064-9.984-62.656-28.928-81.44-52.544-16.416-20.448-31.328-40.704-41.824-67.616-24.512-63.008-6.656-129.504 20.64-174.08a2745.216 2745.216 0 0 1 98.208-151.264c18.24-26.944 36.48-54.016 54.72-80.896l1.664-1.12c11.392 18.432 22.656 36.864 34.08 55.296 16.192 25.952 31.296 52.32 48.96 76.992z m-174.624 236.064a98.88 98.88 0 0 0 57.472 62.432c8.48 3.488 18.976 2.592 28.576 6.08 63.584 0.576 117.568-64.128 90.848-132.672-13.056-33.888-38.528-57.664-79.232-64.096-62.304-10.176-117.184 65.76-97.664 128.256z m840.736-189.248l-140.256 91.552c-16 11.072-32.064 21.952-48.032 32.992-31.744 17.312-63.264 34.624-94.944 51.968-16.928 9.952-36.832 18.24-50.272 31.872l-1.12 0.544c63.232 13.12 129.184 14.016 195.488 25.088 34.048 3.872 68.16 7.712 102.272 11.776v0.576c-5.184 7.008-20.096 27.104-27.296 30.752l-25.664-2.176c-30.88-1.888-61.696-3.712-92.672-5.536-24.128-3.712-48.8-0.576-74.24-4.448-71.616-6.784-143.328-13.28-215.008-19.904 32.416-24.864 64.864-49.92 97.088-74.784 34.656-23.008 72.032-41.28 105.568-65.248 42.752-33.376 85.696-66.688 128.448-99.84l1.12-1.632c-103.2-6.496-206.176-13.12-309.376-19.584l-62.464-2.784c-25.408-3.84-48.992-4.928-72.576-9.504l-34.08-4.992a79071.968 79071.968 0 0 1-100.96-170.24l-1.12-1.664c114.4 25.248 232.704 44.224 348.96 69.792 62.848 11.264 125.888 22.336 188.672 33.568 89.184 15.296 178.336 30.592 267.36 45.664v0.608c-28.352 18.336-56.544 36.96-84.896 55.584z"  horiz-adv-x="1024" />

    
    <glyph glyph-name="arrow-circle-up-copy" unicode="&#58886;" d="M512 879.336738c274.274854 0 496.61385-222.338995 496.61385-496.613849S786.274854-113.89096099999995 512-113.89096099999995 15.38615 108.448034 15.38615 382.722889 237.725146 879.336738 512 879.336738z m297.506117-585.768381L512 689.472859 214.372253 293.568357h198.377955v-198.013065h198.377954V293.568357h198.377955z"  horiz-adv-x="1024" />

    
    <glyph glyph-name="wenjian" unicode="&#59283;" d="M544 768h-288c-19.2 0-32-12.8-32-32v-704c0-19.2 12.8-32 32-32h512c19.2 0 32 12.8 32 32v480h-192c-35.2 0-64 28.8-64 64v192z m64-12.8v-179.2h179.2l-179.2 179.2z m-352 76.8h352c9.6 0 16-3.2 22.4-9.6l224-224c6.4-6.4 9.6-12.8 9.6-22.4v-544c0-54.4-41.6-96-96-96h-512c-54.4 0-96 41.6-96 96v704c0 54.4 41.6 96 96 96z m64-352h160c19.2 0 32-12.8 32-32s-12.8-32-32-32h-160c-19.2 0-32 12.8-32 32s12.8 32 32 32z m0-128h384c19.2 0 32-12.8 32-32s-12.8-32-32-32h-384c-19.2 0-32 12.8-32 32s12.8 32 32 32z m0-128h384c19.2 0 32-12.8 32-32s-12.8-32-32-32h-384c-19.2 0-32 12.8-32 32s12.8 32 32 32z"  horiz-adv-x="1024" />

    
    <glyph glyph-name="icon-" unicode="&#58890;" d="M486.4 286.72h51.2v-138.24h-51.2zM371.2 442.88h-51.2v102.4c0 102.4 81.92 184.32 184.32 184.32s184.32-81.92 184.32-184.32v-61.44h-51.2v61.44c0 74.24-58.88 133.12-133.12 133.12-74.24 0-133.12-58.88-133.12-133.12v-102.4zM512 302.08m-48.64 0a48.64 48.64 0 1 1 97.28 0 48.64 48.64 0 1 1-97.28 0ZM724.48 2.56H299.52c-33.28 0-58.88 25.6-58.88 58.88v332.8c0 33.28 25.6 58.88 58.88 58.88h422.4c33.28 0 58.88-25.6 58.88-58.88v-332.8c2.56-33.28-25.6-58.88-56.32-58.88zM299.52 404.48c-5.12 0-7.68-2.56-7.68-7.68v-332.8c0-5.12 2.56-7.68 7.68-7.68h422.4c5.12 0 7.68 2.56 7.68 7.68v332.8c0 5.12-2.56 7.68-7.68 7.68H299.52z"  horiz-adv-x="1024" />

    
    <glyph glyph-name="tingzhi" unicode="&#58952;" d="M512-64A448 448 0 1 0 512 832a448 448 0 0 0 0-896z m0 64A384 384 0 1 1 512 768a384 384 0 0 1 0-768zM352 544l320 0 0-320-320 0 0 320Z"  horiz-adv-x="1024" />

    
    <glyph glyph-name="err1" unicode="&#58935;" d="M512 384m-512 0a512 512 0 1 1 1024 0 512 512 0 1 1-1024 0ZM475.428571 676.571429l14.628572-460.8h51.2L555.885714 676.571429H475.428571z m36.571429-519.314286c-14.628571 0-29.257143-7.314286-36.571429-14.628572-7.314286-7.314286-14.628571-21.942857-14.628571-36.571428s7.314286-29.257143 14.628571-36.571429c7.314286-7.314286 21.942857-14.628571 36.571429-14.628571s29.257143 7.314286 36.571429 14.628571c7.314286 7.314286 14.628571 21.942857 14.628571 36.571429s-7.314286 29.257143-14.628571 36.571428c-7.314286 7.314286-21.942857 14.628571-36.571429 14.628572z"  horiz-adv-x="1024" />

    
    <glyph glyph-name="wenjian1" unicode="&#59036;" d="M293.7 260.3H643V304H293.7v-43.7z m291.1 247.4H293.7V464h291.1v43.7z m320.1 203.7v-43.7l-43.6 43.6v-1.2L816.4 755h1.1l-43.4 43.4 116.3 0.3h-684v-87.3h-87.3v-742.2h698.5v87.3h87.3V711.4z m-654.8 43.7h508.3l-6.1-6.1 37.5-37.5H250.1v43.6z m523.8-742.2H162.7V667.8h495l-4.6-4.6 120.8-120.8v-529.5z m43.7 567.6L686.7 711.1l130.8 0.3v-130.9z m43.7-480.3h-43.7V683.6l37.5-37.5 6.1 6.1v-552z m-567.6 262H643v43.7H293.7v-43.7z m0-203.8H643v43.7H293.7v-43.7z"  horiz-adv-x="1024" />

    
    <glyph glyph-name="error6" unicode="&#58895;" d="M511 656C360.2 656 238 533.8 238 383S360.2 110 511 110 784 232.2 784 383 661.8 656 511 656z m0-496.4c-123.2 0-223.4 100.2-223.4 223.4s100.2 223.4 223.4 223.4 223.4-100.2 223.4-223.4-100.2-223.4-223.4-223.4zM521.4 329.4h-18.6c-11.4 0-20.6 9.2-20.6 20.6v176.6c0 11.4 9.2 20.6 20.6 20.6h18.6c11.4 0 20.6-9.2 20.6-20.6V350c0-11.4-9.2-20.6-20.6-20.6zM521.4 217.4h-18.6c-11.4 0-20.6 9.2-20.6 20.6v42c0 11.4 9.2 20.6 20.6 20.6h18.6c11.4 0 20.6-9.2 20.6-20.6v-42c0-11.4-9.2-20.6-20.6-20.6z"  horiz-adv-x="1024" />

    
    <glyph glyph-name="xiangji1" unicode="&#58936;" d="M512.6 458.4C450 458.4 399 407.5 399 344.8c0-62.6 50.9-113.6 113.6-113.6 62.6 0 113.6 50.9 113.6 113.6-0.1 62.6-51 113.6-113.6 113.6zM853.8 609.1c-38.2 0-71.7 27.1-79.7 64.4-9.5 44.3-49.3 76.5-94.6 76.5H345.6c-45.3 0-85.1-32.2-94.6-76.5-8-37.3-41.5-64.4-79.7-64.4-58.2 0-105.5-47.3-105.5-105.5v-362.1c0-58.2 47.3-105.5 105.5-105.5h682.5c58.2 0 105.5 47.3 105.5 105.5V503.6c0 58.2-47.3 105.5-105.5 105.5z m-341.2-451c-103 0-186.7 83.8-186.7 186.7s83.8 186.7 186.7 186.7 186.7-83.8 186.7-186.7-83.8-186.7-186.7-186.7z"  horiz-adv-x="1024" />

    
    <glyph glyph-name="gps1" unicode="&#58905;" d="M512.002 291.08500000000004c-97.694 0-177.175 79.477-177.175 177.169 0 97.693 79.48 177.172 177.175 177.172 97.693 0 177.172-79.48 177.172-177.172 0-97.691-79.48-177.17-177.172-177.17z m0 303.176c-69.482 0-126.01-56.527-126.01-126.007 0-69.478 56.528-126.004 126.01-126.004 69.479 0 126.006 56.524 126.006 126.004S581.481 594.26 512.002 594.26zM512.007-11.960000000000036c-7.097 0-28.693 0-87.321 46.405-36.044 28.53-75.429 66.275-110.899 106.284-55.052 62.097-147.406 182.813-147.406 293.608 0 46.647 9.142 91.913 27.17 134.54 17.41 41.16 42.327 78.119 74.06 109.853 31.734 31.733 68.694 56.65 109.854 74.06 42.627 18.03 87.894 27.172 134.543 27.172 46.645 0 91.908-9.142 134.535-27.172 41.158-17.41 78.116-42.326 109.849-74.06s56.649-68.693 74.057-109.852c18.03-42.627 27.172-87.892 27.172-134.54 0-111.106-91.732-231.62-146.412-293.567-35.468-40.182-74.835-77.952-110.847-106.354-58.808-46.377-81.048-46.377-88.355-46.377z m0 740.756c-78.654 0-152.6-30.63-208.217-86.245-55.615-55.617-86.244-129.561-86.244-208.213 0-35.991 12.924-78.25 38.411-125.603 22.207-41.257 54.11-86.101 92.26-129.684 32.733-37.395 69.37-73.062 103.16-100.431 35.981-29.143 55.364-38.042 60.776-39.326 15.246 2.975 83.522 46.929 163.944 139.037 38.035 43.562 69.866 88.5 92.054 129.955 25.416 47.487 38.304 89.897 38.304 126.052 0 78.652-30.629 152.596-86.243 208.213-55.616 55.615-129.558 86.245-208.205 86.245z"  horiz-adv-x="1024" />

    
    <glyph glyph-name="saoma" unicode="&#58893;" d="M657.8 219V334.1h-19.3V219h19.3zM388.3 623.8H369v-174h19.3v174z m-269.4-0.6c10.6 0 19.2 8.6 19.2 19.2 0 0.2-0.1 0.3-0.1 0.5v76.5c0 21.3 17.2 38.5 38.5 38.5h50.4v0.1h7.9c0.2 0 0.3-0.1 0.5-0.1 10.6 0 19.2 8.6 19.2 19.2s-8.6 19.3-19.2 19.3v0.1h-63.6v-0.1h-14.4c-31.9 0-57.8-25.9-57.8-57.8v-96.2h0.1c0-10.6 8.6-19.2 19.3-19.2z m-0.8-250.1H909c10.5 0 19 8.5 19 19s-8.5 19-19 19H118.1c-10.5 0-19-8.5-19-19s8.5-19 19-19zM734.8 219V334.1h-19.4V219h19.4zM214.9 449.8h38.7v174h-38.7v-174z m96.4 174h-19.4v-174h19.4v174z m500.5 0h-38.7v-174h38.7v174zM793.2 758c0.2 0 0.3 0.1 0.5 0.1h25.9v-0.1h30.9c21.3 0 38.5-17.2 38.5-38.5V643c0-0.2-0.1-0.3-0.1-0.5 0-10.6 8.6-19.2 19.2-19.2s19.3 8.6 19.3 19.2h0.1v96.2c0 31.9-25.9 57.8-57.8 57.8h-13v0.1h-63.6v-0.1c-10.6 0-19.2-8.6-19.2-19.3 0-10.6 8.6-19.2 19.3-19.2z m-58.4-134.2h-19.4v-174h19.4v174z m-250 0H427v-174h57.8v174z m115.3 0h-38.7v-174h38.7v174z m57.7 0h-19.3v-174h19.3v174zM427 219h57.8V334.1H427V219z m192.5-76.9H658v39.1h-38.5v-39.1z m-365.9-0.7V334.1h-38.7v-192.8h38.7zM561.4 219h38.7V334.1h-38.7V219z m346.8-77c-10.6 0-19.2-8.6-19.2-19.2 0-0.2 0.1-0.3 0.1-0.5v-76.5c0-19.1-14-34.9-32.3-37.9v0.4h-63.6v-0.1c-10.6 0-19.2-8.6-19.2-19.3 0-10.6 8.6-19.2 19.2-19.2 0.2 0 0.3 0.1 0.5 0.1h25.9v-1h50.1c31.9 0 57.8 25.9 57.8 57.8v96.2h-0.1c0 10.5-8.6 19.2-19.2 19.2z m-96.4 192.1h-38.7v-192.8h38.7V334.1zM523 142.1h38.5v39.1H523v-39.1z m173.5 0H735v39.1h-38.5v-39.1z m-385.2 192h-19.4V219h19.4V334.1z m134.9-192h38.5v39.1h-38.5v-39.1z m-210.9-134v0.1h-63.6v-0.6c-19 2.4-33.7 18.4-33.7 38v76.5c0 0.2 0.1 0.3 0.1 0.5 0 10.6-8.6 19.2-19.2 19.2s-19.3-8.6-19.3-19.2h-0.1v-96.2c0-31.9 25.9-57.8 57.8-57.8h69.6v1h7.9c0.2 0 0.3-0.1 0.5-0.1 10.6 0 19.2 8.6 19.2 19.2 0 10.8-8.6 19.4-19.2 19.4z m56.9 134h38.5v39.1h-38.5v-39.1z m77 0h38.5v39.1h-38.5v-39.1z m19.1 192H369V219h19.3V334.1z"  horiz-adv-x="1024" />

    
    <glyph glyph-name="dingwei" unicode="&#58904;" d="M510.9 54.9c6 0 11.7 2.7 15.5 7.2 11.2 13.3 273.4 328.1 273.4 482.1 0 159.3-129.6 288.9-288.9 288.9C351.6 833.1 222 703.5 222 544.2c0-153.9 262.2-468.8 273.3-482.1 3.9-4.5 9.6-7.2 15.6-7.2z m0 737.7c137 0 248.4-111.4 248.4-248.4 0-119.3-191.8-366.6-248.4-437-56.6 70.4-248.4 317.7-248.4 437 0.1 137 111.5 248.4 248.4 248.4z m123.7-225.8c0 66.1-53.8 119.9-119.9 119.9-66.1 0-119.9-53.8-119.9-119.9S448.7 447 514.8 447s119.8 53.7 119.8 119.8z m-199.2 0c0 43.8 35.6 79.3 79.4 79.3 43.7 0 79.3-35.6 79.3-79.3s-35.6-79.3-79.3-79.3c-43.8 0-79.4 35.6-79.4 79.3z m212-410.8c-10.9 2.3-21.7-4.9-23.9-15.8-2.2-11 4.9-21.6 15.8-23.9 78.7-15.9 119.9-44 119.9-63.5 0-30.8-96.8-75.5-248.4-75.5-151.6 0-248.4 44.7-248.4 75.5 0 19.8 42 48.1 122.3 64 11 2.2 18.1 12.8 15.9 23.8-2.2 11-12.8 18.1-23.8 16-98.5-19.5-155-57.3-155-103.7 0-76.2 145.3-116 288.9-116 143.6 0 288.9 39.9 288.9 116 0.2 45.9-55.3 83.5-152.2 103.1z"  horiz-adv-x="1024" />

    
    <glyph glyph-name="repair-line" unicode="&#59115;" d="M781.50293333-10.33280000000002c-25.0432 0-48.93013333 9.632-66.65386666 27.73973333l-366.01493334 366.016c-17.72266667-5.00906667-35.8304-7.70666667-54.32426666-7.70666666-52.0128 0-100.94293333 20.42026667-137.93066667 57.02186666-51.62666667 52.0128-69.7344 127.52746667-47.3888 197.648 2.31146667 6.93546667 7.7056 11.94346667 14.64106667 13.4848 6.9344 1.54133333 14.25493333-0.38506667 19.264-5.39413333l83.9904-83.9904c8.09066667-8.09066667 18.49386667-12.3296 29.66613333-12.3296 11.17333333 0 21.9616 4.23893333 29.6672 12.3296l23.88693333 23.88693333c8.09066667 8.09066667 12.3296 18.49386667 12.3296 29.66613334s-4.23893333 21.9616-12.3296 29.6672l-83.60533333 84.37546666c-5.00906667 5.00906667-6.93546667 12.3296-5.39413333 19.264 1.54133333 6.93546667 6.93546667 12.3296 13.4848 14.64106667 19.264 6.16533333 39.68426667 9.24693333 60.10346666 9.24693333 52.0128 0 100.94293333-20.42026667 137.93066667-57.02186666 50.08533333-50.0864 68.96426667-124.4448 49.3152-192.25386667l366.016-366.016c36.60053333-36.6016 36.60053333-96.32 0-133.30666667-17.72373333-16.95146667-41.61066667-26.96853333-66.65386667-26.96853333zM354.61333333 426.95786667c5.39413333 0 10.40213333-1.92533333 14.64106667-6.1632l374.8768-374.8768c10.016-10.01813333 23.50186667-15.4112 37.7568-15.4112 14.25493333 0 27.73973333 5.39306667 37.75786667 15.4112 20.80426667 20.80426667 20.80426667 54.32426667 0 75.12853333L444.768 495.9232c-5.7792 5.7792-7.32053333 13.87093333-4.624 21.57653333 20.42026667 56.25066667 6.54933333 119.43573333-35.8304 161.81653334-28.896 28.896-67.80906667 45.07733333-109.03466667 45.07733333-4.23786667 0-8.09066667 0-12.32853333-0.384l57.02186667-57.02186667c15.79626667-15.79733333 24.272-36.6016 24.272-58.56213333 0-22.34666667-8.47573333-43.152-24.272-58.5632l-23.888-23.88693333c-15.79626667-15.79733333-36.6016-24.27306667-58.56213334-24.27306667-22.34666667 0-43.15093333 8.4768-58.56213333 24.27306667l-57.792 56.63573333c-3.46773333-44.3072 12.32853333-88.6144 44.69226667-120.97706667 28.896-28.896 67.808-45.07733333 109.03466666-45.07733333 18.10773333 0 35.82933333 3.0816 52.78293334 9.24586667 2.31146667 0.7712 4.62293333 1.15626667 6.9344 1.15626666zM838.90986667 386.50453333c-10.4032 0-20.0352 3.8528-27.35573334 11.17333334l-0.384 0.384-56.6368 56.6368-46.2336-46.2336c-8.09066667-8.09066667-20.80533333-8.09066667-28.896 0-8.09066667 8.09066667-8.09066667 20.80533333 0 28.896l60.48853334 60.48853333c8.09173333 8.09173333 20.80533333 8.09173333 28.896 0l68.58026666-68.5792 45.4624 135.61813333-171.44853333 171.4496-90.15573333-90.15466666 43.92213333-43.9232c3.8528-3.8528 6.16426667-9.24586667 6.16426667-14.64s-2.31146667-10.78826667-6.16533334-14.64106667l-60.48853333-60.48853333c-8.09066667-8.09066667-20.80426667-8.09066667-28.896 0-8.09066667 8.09066667-8.09066667 20.80533333 0 28.896l46.2336 46.2336-31.20746667 31.20746666c-15.02613333 15.02613333-15.02613333 39.29813333 0 54.32533334l93.62346667 93.62133333c15.02506667 15.02613333 39.29813333 15.02613333 54.32426667 0L912.8832 592.62933333c10.40213333-10.40213333 13.86986667-25.42826667 9.24693333-39.29813333L876.2816 415.78666667c-1.54133333-6.93546667-5.00906667-12.71466667-10.01706667-17.72266667-7.32053333-7.7056-16.95253333-11.5584-27.35466666-11.5584z m-587.936-396.83733333c-24.27306667 0-48.16 9.24586667-66.65386667 27.35466667-36.6016 36.6016-36.6016 96.32 0 133.30666666l139.08586667 139.08586667c8.09066667 8.09066667 20.80533333 8.09066667 28.896 0 8.09066667-8.09173333 8.09066667-20.80533333 0-28.896L213.216 121.43253332999996c-20.80533333-20.80533333-20.80533333-54.32533333 0-75.1296s54.32426667-20.80533333 75.1296 0l139.08586667 139.08586667c8.09066667 8.09066667 20.80533333 8.09066667 28.896 0 8.09066667-8.09066667 8.09066667-20.80533333 0-28.896L317.2416 17.406933330000015c-17.72266667-18.49386667-41.99573333-27.73973333-66.2688-27.73973333z"  horiz-adv-x="1024" />

    
    <glyph glyph-name="error-" unicode="&#58902;" d="M512 444.330667l97.834667 97.834666a42.666667 42.666667 0 0 0 60.330666-60.330666l-256-256a42.666667 42.666667 0 1 0-60.330666 60.330666L451.669333 384 353.834667 481.834667a42.666667 42.666667 0 0 0 60.330666 60.330666L512 444.330667z m-341.333333-197.973334l75.52-91.136a42.666667 42.666667 0 0 0-65.706667-54.442666l-85.333333 102.997333a42.666667 42.666667 0 0 0-9.813334 27.221333V537.002667a42.666667 42.666667 0 0 0 12.501334 30.165333l230.997333 230.997333A42.666667 42.666667 0 0 0 358.997333 810.666667h326.229334a42.666667 42.666667 0 0 0 31.445333-13.824l210.773333-229.973334a42.666667 42.666667 0 0 0 11.221334-28.8v-308.138666a42.666667 42.666667 0 0 0-11.221334-28.842667l-210.773333-229.930667a42.666667 42.666667 0 0 0-31.445333-13.824H358.997333a42.666667 42.666667 0 0 0 0 85.333334h307.456L853.333333 246.528V521.472L666.453333 725.333333H376.661333L170.666667 519.338667v-272.938667z m396.501333 22.144a42.666667 42.666667 0 0 0 60.330667 60.330667l42.666666-42.666667a42.666667 42.666667 0 0 0-60.330666-60.330666l-42.666667 42.666666z"  horiz-adv-x="1024" />

    
    <glyph glyph-name="xiaochengxuzititubiao-" unicode="&#58889;" d="M512-63c-60.3 0-118.9 11.8-174 35.1-53.2 22.5-101 54.7-142.1 95.8-41 41-73.3 88.8-95.8 142.1C76.8 265.1 65 323.7 65 384s11.8 118.9 35.1 174c22.5 53.2 54.7 101 95.8 142.1 41 41 88.8 73.3 142.1 95.8C393.1 819.2 451.7 831 512 831s118.9-11.8 174-35.1c53.2-22.5 101-54.7 142.1-95.8 41-41 73.3-88.8 95.8-142.1 23.3-55.1 35.1-113.7 35.1-174s-11.8-118.9-35.1-174c-22.5-53.2-54.7-101-95.8-142.1-41-41-88.8-73.3-142.1-95.8-55.1-23.3-113.7-35.1-174-35.1z m0 830c-211.2 0-383-171.8-383-383s171.8-383 383-383 383 171.8 383 383-171.8 383-383 383zM692.6 415.5c-66.8 45.5-188 113.5-257 155.7-28.3 17.8-52.1 10.7-54.3-20.8-1.7-84.4 0-247.2 0-333 1.4-32 29.6-36.2 54.1-23.4 68.9 41.7 187.3 113.5 256.6 155.5-0.5 0.2 52.6 29.4 0.6 66z"  horiz-adv-x="1024" />

    
    <glyph glyph-name="gps" unicode="&#59063;" d="M512-57.451789c251.526737 209.327158 377.263158 383.407158 377.263158 522.293894A377.263158 377.263158 0 1 1 134.736842 464.842105c0-138.886737 125.736421-313.020632 377.263158-522.293894zM512-92.537263l-17.246316 14.336C234.334316 138.509474 107.789474 316.146526 107.789474 464.842105 107.789474 687.750737 289.091368 869.052632 512 869.052632s404.210526-181.301895 404.210526-404.210527c0-148.695579-126.598737-326.332632-386.96421-543.043368l-17.246316-14.336zM512 815.157895A350.746947 350.746947 0 0 1 161.684211 464.842105c0-126.760421 117.867789-290.600421 350.315789-487.154526 232.448 196.500211 350.315789 360.394105 350.315789 487.154526 0 193.158737-157.157053 350.315789-350.315789 350.31579zM512 464.842105m-161.684211 0a161.684211 161.684211 0 1 1 323.368422 0 161.684211 161.684211 0 1 1-323.368422 0ZM512 276.210526c-104.016842 0-188.631579 84.614737-188.631579 188.631579s84.614737 188.631579 188.631579 188.631579 188.631579-84.614737 188.631579-188.631579-84.614737-188.631579-188.631579-188.631579z m0 323.368421c-74.266947 0-134.736842-60.469895-134.736842-134.736842s60.469895-134.736842 134.736842-134.736842c74.320842 0 134.736842 60.469895 134.736842 134.736842s-60.416 134.736842-134.736842 134.736842z"  horiz-adv-x="1024" />

    
    <glyph glyph-name="jia1" unicode="&#58888;" d="M821.12 88.96000000000004h-606.72v608h606.72v-608z m-574.72 32h542.72v544h-542.72v-544zM701.44 377.6h-368c-8.96 0-16 7.04-16 16s7.04 16 16 16h368c8.96 0 16-7.04 16-16S710.4 377.6 701.44 377.6zM517.76 200.32000000000005c-8.96 0-16 7.04-16 16v353.92c0 8.96 7.04 16 16 16s16-7.04 16-16v-353.92c0-8.32-7.04-16-16-16z"  horiz-adv-x="1024" />

    
    <glyph glyph-name="shanchu1" unicode="&#58903;" d="M341.333333 469.333333a21.333333 21.333333 0 0 0 21.333334-21.333333v-341.333333a21.333333 21.333333 0 1 0-42.666667 0v341.333333A21.333333 21.333333 0 0 0 341.333333 469.333333z m170.666667 0a21.333333 21.333333 0 0 0 21.333333-21.333333v-341.333333a21.333333 21.333333 0 1 0-42.666666 0v341.333333a21.333333 21.333333 0 0 0 21.333333 21.333333z m170.666667 0a21.333333 21.333333 0 0 0 21.333333-21.333333v-341.333333a21.333333 21.333333 0 1 0-42.666667 0v341.333333a21.333333 21.333333 0 0 0 21.333334 21.333333zM86.4 682.666667h851.2c12.373333 0 22.4-9.557333 22.4-21.333334s-10.026667-21.333333-22.4-21.333333H86.4a21.888 21.888 0 0 0-22.4 21.333333c0 11.776 10.026667 21.333333 22.4 21.333334zM874.666667 576v-570.965333c0-49.92-40.576-90.368-90.666667-90.368H240A90.496 90.496 0 0 0 149.333333 5.034667V576a21.333333 21.333333 0 0 0 42.666667 0v-575.658667c0-25.173333 20.48-45.525333 45.696-45.525333H786.346667a45.653333 45.653333 0 0 1 45.696 45.525333V576a21.333333 21.333333 0 1 0 42.666666 0zM240 682.666667h544-544zM704 746.666667a21.333333 21.333333 0 1 0-42.666667 0V768a42.666667 42.666667 0 0 1-42.666666 42.666667h-213.333334a42.666667 42.666667 0 0 1-42.666666-42.666667v-21.333333a21.333333 21.333333 0 0 0-42.666667 0V768a85.333333 85.333333 0 0 0 85.333333 85.333333h213.333334a85.333333 85.333333 0 0 0 85.333333-85.333333v-21.333333z m-85.333333-149.333334h-213.333334 213.333334z"  horiz-adv-x="1024" />

    
    <glyph glyph-name="key" unicode="&#59019;" d="M389.485714 415.085714v140.8c0 67.657143 54.857143 122.514286 124.342857 122.514286 67.657143 0 124.342857-54.857143 124.342858-122.514286h64C700.342857 658.285714 616.228571 740.571429 512 740.571429c-102.4 0-186.514286-84.114286-186.514286-186.514286v-140.8h-107.885714v-404.114286h588.8V415.085714H389.485714zM744.228571 73.142857H279.771429V352.914286h466.285714V73.142857zM435.2 239.542857h155.428571v-62.171428h-155.428571z"  horiz-adv-x="1024" />

    
    <glyph glyph-name="zhengjian-" unicode="&#59192;" d="M862.709 617.936c17.039 0 31.048-5.488 42.025-16.466 10.977-10.895 16.466-24.903 16.466-42.025v-468.09c0-17.122-5.489-31.048-16.466-42.025-10.977-10.978-24.986-16.466-42.025-16.466H160.491c-17.039 0-31.048 5.488-42.025 16.466C107.489 60.225 102 74.233 102 91.355v468.09c0 17.04 5.489 31.13 16.466 42.025 10.977 10.978 24.986 16.466 42.025 16.466h702.218zM880 553.073c0 18.966-9.484 28.45-28.45 28.45H168.449c-18.966 0-28.449-9.563-28.449-28.45v-455.347c0-18.966 9.483-28.45 28.449-28.45H851.47c18.966 0 28.45 9.484 28.45 28.45V553.073h0.08zM453.109 193.755c0 28.016-10.076 52.101-30.146 72.253-20.071 20.152-44.237 30.147-72.254 30.147-28.017 0-52.101-10.077-72.253-30.147-20.153-20.07-30.147-44.237-30.147-72.253 0-9.831-4.915-14.664-14.664-14.664-9.748 0-14.581 4.833-14.581 14.664 0 36.536 12.779 67.665 38.42 93.225 25.559 25.64 56.607 38.42 93.225 38.42 36.536 0 67.666-12.78 93.225-38.42 25.559-25.56 38.421-56.689 38.421-93.225 0-9.831-4.916-14.664-14.664-14.664-9.749 0-14.582 4.833-14.582 14.664z m-51.2 153.6c-14.664-14.664-31.703-21.955-51.2-21.955-19.497 0-36.618 7.291-51.2 21.955-14.582 14.663-21.954 31.703-21.954 51.2 0 19.496 7.29 36.536 21.954 51.2 14.664 14.663 31.703 21.954 51.2 21.954 19.497 0 36.536-7.291 51.2-21.955 14.664-14.663 21.955-31.784 21.955-51.199 0-19.497-7.373-36.619-21.955-51.2z m-20.152 82.247c-8.52 8.52-18.842 12.862-31.048 12.862s-22.528-4.342-31.048-12.78c-8.601-8.601-12.861-19.005-12.861-31.129 0-12.207 4.26-22.61 12.78-31.048 8.519-8.602 18.923-12.862 31.129-12.862 12.206 0 22.528 4.26 31.048 12.78 8.519 8.52 12.779 18.923 12.779 31.048 0 12.206-4.26 22.61-12.779 31.129z m407.798 12.862h-204.8c-9.749 0-14.664 4.833-14.664 14.663 0 9.749 4.915 14.664 14.664 14.664h204.8c9.748 0 14.663-4.915 14.663-14.664-0.082-9.83-4.915-14.663-14.663-14.663z m0-87.819h-204.8c-9.749 0-14.664 4.834-14.664 14.664 0 9.749 4.915 14.664 14.664 14.664h204.8c9.748 0 14.663-4.915 14.663-14.664-0.082-9.83-4.915-14.664-14.663-14.664z m0-87.736h-204.8c-9.749 0-14.664 4.833-14.664 14.664 0 9.748 4.915 14.663 14.664 14.663h204.8c9.748 0 14.663-4.915 14.663-14.663-0.082-9.831-4.915-14.664-14.663-14.664z m0-87.818h-204.8c-9.749 0-14.664 4.833-14.664 14.664 0 9.748 4.915 14.663 14.664 14.663h204.8c9.748 0 14.663-4.915 14.663-14.663-0.082-9.831-4.915-14.664-14.663-14.664z"  horiz-adv-x="1024" />

    
    <glyph glyph-name="error7" unicode="&#59484;" d="M512 810.666667C276.48 810.666667 85.333333 619.52 85.333333 384s191.146667-426.666667 426.666667-426.666667 426.666667 191.146667 426.666667 426.666667S747.52 810.666667 512 810.666667z m42.666667-640h-85.333334v85.333333h85.333334v-85.333333z m0 170.666666h-85.333334V597.333333h85.333334v-256z"  horiz-adv-x="1024" />

    
    <glyph glyph-name="jia" unicode="&#58991;" d="M925.1-32.7H96.3V797.8h828.8v-830.5zM140 11h741.3V754.1H140V11z m0 0M761.6 361.5H258.9c-12.2 0-21.8 9.6-21.8 21.9 0 12.2 9.6 21.9 21.8 21.9h502.7c12.2 0 21.9-9.6 21.9-21.9-0.1-12.2-9.7-21.9-21.9-21.9z m0 0M510.7 119.4c-12.2 0-21.9 9.6-21.9 21.9V624.7c0 12.2 9.6 21.9 21.9 21.9 12.2 0 21.9-9.6 21.9-21.9v-483.4c-0.1-11.4-9.7-21.9-21.9-21.9z m0 0"  horiz-adv-x="1024" />

    
    <glyph glyph-name="xiangji2" unicode="&#58909;" d="M930.252249 0.067737H93.567119c-48.770506 0-88.328806 39.5583-88.328805 88.328806V542.684777c0 48.770506 39.5583 88.328806 88.328805 88.328806h115.604163c13.727994 0 27.094726 12.102311 28.359147 25.830305l3.431998 36.487564c4.515788 46.78356 46.422297 84.896807 93.56712 84.896807h354.940906c47.144823 0 89.051332-38.113247 93.56712-84.896807l3.431998-36.487564c1.264421-13.727994 14.631152-25.830305 28.359147-25.830305h115.604163c48.770506 0 88.328806-39.5583 88.328805-88.328806v-454.288234c-0.180632-48.770506-39.738931-88.328806-88.509437-88.328806zM93.567119 565.624978c-12.644205 0-22.940201-10.295996-22.940201-22.940201v-454.288234c0-12.463574 10.476627-22.940201 22.940201-22.940201H930.252249c12.463574 0 22.940201 10.476627 22.940201 22.940201V542.684777c0 12.644205-10.295996 22.940201-22.940201 22.940201h-115.604163c-47.144823 0-89.051332 38.113247-93.567119 84.896807l-3.431999 36.487564c-1.264421 13.727994-14.631152 25.830305-28.359146 25.830305H334.529547c-13.727994 0-27.094726-12.102311-28.359147-25.830305l-3.431998-36.487564c-4.515788-46.78356-46.422297-84.896807-93.56712-84.896807h-115.604163zM511.909684 127.954842c-117.049215 0-212.242018 95.192803-212.242018 212.242018s95.192803 212.242018 212.242018 212.242018S724.332334 457.426707 724.332334 340.19686s-95.373434-212.242018-212.42265-212.242018z m0 359.276063c-80.922914 0-146.853413-65.930499-146.853413-146.853413s65.930499-146.853413 146.853413-146.853414 146.853413 65.930499 146.853414 146.853414-65.749868 146.853413-146.853414 146.853413z"  horiz-adv-x="1024" />

    
    </font>
</defs>
</svg>
